<?xml version="1.0" encoding="UTF-8"?>
<svg version="1.1" xmlns="http://www.w3.org/2000/svg" width="500" height="500">
<path d="M0 0 C165 0 330 0 500 0 C500 165 500 330 500 500 C335 500 170 500 0 500 C0 335 0 170 0 0 Z " fill="#FE4805" transform="translate(0,0)"/>
<path d="M0 0 C105.6 0 211.2 0 320 0 C320 30.69 320 61.38 320 93 C214.4 93 108.8 93 0 93 C0 62.31 0 31.62 0 0 Z " fill="#FDE8D1" transform="translate(89,211)"/>
<path d="M0 0 C4.46839267 3.76089717 7.54477963 7.88396709 8.07513428 13.8170166 C8.17321694 16.62969083 8.20464787 19.43560585 8.2109375 22.25 C8.2209227 23.80548553 8.2209227 23.80548553 8.23110962 25.39239502 C8.24122181 27.58449535 8.24592708 29.77662637 8.24560547 31.96875 C8.24996662 35.30260744 8.28626947 38.63512764 8.32421875 41.96875 C8.33008978 44.10416217 8.33405726 46.23958059 8.3359375 48.375 C8.35030853 49.36280457 8.36467957 50.35060913 8.37948608 51.36834717 C8.32860187 59.17620048 6.23783728 64.72757536 2.1875 71.328125 C-5.56469804 78.87080418 -14.335457 79.91344554 -24.79443359 79.96313477 C-32.61567909 79.79799776 -40.19266186 77.92816079 -46.26171875 72.7578125 C-50.125 68.45327069 -50.125 68.45327069 -50.125 65.578125 C-50.785 65.578125 -51.445 65.578125 -52.125 65.578125 C-52.125 69.538125 -52.125 73.498125 -52.125 77.578125 C-76.545 77.578125 -100.965 77.578125 -126.125 77.578125 C-127.01168636 72.25800687 -127.20570352 67.90455748 -127.125 62.578125 C-135.045 63.073125 -135.045 63.073125 -143.125 63.578125 C-143.785 68.198125 -144.445 72.818125 -145.125 77.578125 C-153.045 77.578125 -160.965 77.578125 -169.125 77.578125 C-167.99989202 68.57726117 -167.99989202 68.57726117 -167.31225586 65.53759766 C-167.15768921 64.84594513 -167.00312256 64.1542926 -166.84387207 63.44168091 C-166.67754272 62.71584808 -166.51121338 61.99001526 -166.33984375 61.2421875 C-166.16296021 60.4568161 -165.98607666 59.6714447 -165.80383301 58.86227417 C-165.22733121 56.30831359 -164.64510495 53.75569963 -164.0625 51.203125 C-163.66071732 49.43037737 -163.25910801 47.65759044 -162.85766602 45.88476562 C-159.0464226 29.09219445 -155.09714235 12.33334365 -151.125 -4.421875 C-140.235 -4.421875 -129.345 -4.421875 -118.125 -4.421875 C-117.135 0.198125 -116.145 4.818125 -115.125 9.578125 C-114.4949 12.44893545 -113.86261644 15.31891708 -113.22265625 18.1875 C-113.05881943 18.92405823 -112.8949826 19.66061646 -112.72618103 20.41949463 C-112.21379773 22.72248538 -111.70067493 25.02531053 -111.1875 27.328125 C-110.84955837 28.84634281 -110.51166761 30.36457195 -110.17382812 31.8828125 C-110.00636078 32.63485962 -109.83889343 33.38690674 -109.66635132 34.16174316 C-109.33001102 35.67386524 -108.99441428 37.18615292 -108.65957642 38.6986084 C-107.7851751 42.64283388 -106.89487559 46.58253288 -105.97998047 50.51757812 C-105.79431015 51.32600159 -105.60863983 52.13442505 -105.41734314 52.96734619 C-105.06370788 54.50580133 -104.70511018 56.04312771 -104.34059143 57.57904053 C-103.40941656 61.65738718 -102.94137312 65.3961974 -103.125 69.578125 C-102.465 69.578125 -101.805 69.578125 -101.125 69.578125 C-101.125 45.158125 -101.125 20.738125 -101.125 -4.421875 C-93.535 -4.421875 -85.945 -4.421875 -78.125 -4.421875 C-78.125 17.358125 -78.125 39.138125 -78.125 61.578125 C-69.875 61.578125 -61.625 61.578125 -53.125 61.578125 C-53.13660156 58.01515625 -53.14820313 54.4521875 -53.16015625 50.78125 C-53.1679537 47.3326832 -53.17402655 43.88411738 -53.17993164 40.43554688 C-53.1849622 38.03775595 -53.19178733 35.63996809 -53.20043945 33.2421875 C-53.21256082 29.79686729 -53.21824108 26.35158763 -53.22265625 22.90625 C-53.22781754 21.83320618 -53.23297882 20.76016235 -53.23829651 19.65460205 C-53.23837204 18.65386658 -53.23844757 17.6531311 -53.23852539 16.62207031 C-53.240746 15.74270813 -53.24296661 14.86334595 -53.24525452 13.95733643 C-53.13080255 11.69292737 -52.75995453 9.74840638 -52.125 7.578125 C-51.465 7.578125 -50.805 7.578125 -50.125 7.578125 C-49.99158203 6.70027344 -49.99158203 6.70027344 -49.85546875 5.8046875 C-48.4686127 1.57737226 -44.6180325 -0.86977007 -41.125 -3.421875 C-28.66936587 -9.01420053 -11.0261259 -8.11207834 0 0 Z " fill="#FA4906" transform="translate(263.125,220.421875)"/>
<path d="M0 0 C7.59 0 15.18 0 23 0 C24 1 24 1 24.11352539 3.86743164 C24.10828857 5.11903076 24.10305176 6.37062988 24.09765625 7.66015625 C24.0962413 8.32462265 24.09482635 8.98908905 24.09336853 9.6736908 C24.08775518 11.80333899 24.07520054 13.93288339 24.0625 16.0625 C24.05748671 17.50325369 24.05292351 18.94400903 24.04882812 20.38476562 C24.03778145 23.92321102 24.02050792 27.46159539 24 31 C28.29 31 32.58 31 37 31 C37 21.1 37 11.2 37 1 C44.59 1 52.18 1 60 1 C60.33 26.41 60.66 51.82 61 78 C62.98 68.595 62.98 68.595 65 59 C65.82127034 55.22549882 66.6463192 51.45444369 67.5 47.6875 C67.70939209 46.76146973 67.91878418 45.83543945 68.13452148 44.88134766 C69.29521851 39.82682731 70.57326094 34.84497035 72.0625 29.875 C74.06264979 23.19157266 75.3985798 16.42180091 76.69360352 9.57373047 C76.92841431 8.33840576 76.92841431 8.33840576 77.16796875 7.078125 C77.30485107 6.33981445 77.4417334 5.60150391 77.58276367 4.84082031 C78 3 78 3 79 1 C89.56 1 100.12 1 111 1 C111.86625 4.91875 112.7325 8.8375 113.625 12.875 C115.70547662 22.26056584 117.82600757 31.63566474 120 41 C122.16221835 50.32510505 124.28790766 59.65777713 126.375 69 C126.76945312 70.75570312 126.76945312 70.75570312 127.171875 72.546875 C127.41164063 73.62453125 127.65140625 74.7021875 127.8984375 75.8125 C128.11161621 76.76769531 128.32479492 77.72289062 128.54443359 78.70703125 C129 81 129 81 129 83 C120.75 83 112.5 83 104 83 C102 73 102 73 102 69 C96.72 69 91.44 69 86 69 C85.7834375 71.0728125 85.7834375 71.0728125 85.5625 73.1875 C85.21187864 76.54344726 84.66679456 79.6660272 84 83 C68.49 83 52.98 83 37 83 C37 71.12 37 59.24 37 47 C32.71 47 28.42 47 24 47 C24 59.21 24 71.42 24 84 C16.08 84 8.16 84 0 84 C0 56.28 0 28.56 0 0 Z " fill="#FA4906" transform="translate(275,215)"/>
<path d="M0 0 C2.52272857 2.2571782 2.74524756 2.97623782 3.375 6.125 C4.00710892 6.40112625 4.63921783 6.6772525 5.29048157 6.96174622 C7.375 8.125 7.375 8.125 8.40910339 10.14897156 C10.14458196 16.31557628 10.80571675 21.93775172 10.73828125 28.33203125 C10.73902901 29.72466438 10.73902901 29.72466438 10.73979187 31.14543152 C10.73746998 33.08908248 10.72785432 35.03273753 10.71118164 36.97631836 C10.68742102 39.94737552 10.69065604 42.91754267 10.69726562 45.88867188 C10.69169304 47.78646366 10.6845858 49.6842517 10.67578125 51.58203125 C10.67714836 52.90712456 10.67714836 52.90712456 10.67854309 54.25898743 C10.58615025 62.28701223 10.58615025 62.28701223 8.375 66.125 C7.385 66.785 6.395 67.445 5.375 68.125 C4.64534634 70.68782742 4.64534634 70.68782742 4.375 73.125 C1.9 73.62 1.9 73.62 -0.625 74.125 C-1.12 75.61 -1.12 75.61 -1.625 77.125 C-10.40563484 81.35852037 -21.4989145 81.67655316 -30.91015625 79.29296875 C-37.26090828 76.85318344 -37.26090828 76.85318344 -38.625 74.125 C-39.24375 73.856875 -39.8625 73.58875 -40.5 73.3125 C-44.61287344 71.01412955 -46.12443472 66.41232937 -47.625 62.125 C-48.40589489 58.77218065 -48.74779498 55.68193677 -48.73852539 52.24291992 C-48.73844986 51.30232224 -48.73837433 50.36172455 -48.73829651 49.3926239 C-48.73313522 48.3903627 -48.72797394 47.3881015 -48.72265625 46.35546875 C-48.7212413 45.31932938 -48.71982635 44.28319 -48.71836853 43.21565247 C-48.71278242 39.91457196 -48.70023242 36.61355992 -48.6875 33.3125 C-48.68248321 31.07096452 -48.67792061 28.82942798 -48.67382812 26.58789062 C-48.66281753 21.10023716 -48.64609318 15.61262347 -48.625 10.125 C-47.965 10.125 -47.305 10.125 -46.625 10.125 C-46.53605469 9.53976563 -46.44710937 8.95453125 -46.35546875 8.3515625 C-44.9686127 4.12424726 -41.1180325 1.67710493 -37.625 -0.875 C-27.25167494 -5.53241125 -10.00103646 -6.07718483 0 0 Z " fill="#FB4805" transform="translate(259.625,217.875)"/>
<path d="M0 0 C6.6 0 13.2 0 20 0 C20.495 15.345 20.495 15.345 21 31 C25.95 31 30.9 31 36 31 C36.33 20.77 36.66 10.54 37 0 C43.27 0 49.54 0 56 0 C56.04525963 9.26673528 56.08192124 18.53339664 56.10362434 27.80021763 C56.11404292 32.1035887 56.12816683 36.40687994 56.15087891 40.71020508 C56.17267613 44.86639626 56.18458311 49.02251086 56.18975449 53.17875481 C56.19343792 54.76110984 56.20063067 56.34346089 56.21146011 57.92578316 C56.22606667 60.14926195 56.22797415 62.37242789 56.22705078 64.59594727 C56.231492 65.85947525 56.23593323 67.12300323 56.24050903 68.42481995 C55.98364338 72.243142 55.3549894 75.42027568 54 79 C48.29912287 80.90029238 42.00925213 80 36 80 C36 68.45 36 56.9 36 45 C31.05 45.33 26.1 45.66 21 46 C20.67 56.89 20.34 67.78 20 79 C13.73 79 7.46 79 1 79 C0.32738782 73.61910259 -0.12306171 68.9145587 -0.11352539 63.57421875 C-0.11367142 62.88054703 -0.11381744 62.18687531 -0.1139679 61.47218323 C-0.11327885 59.21058879 -0.10553439 56.9490798 -0.09765625 54.6875 C-0.09578848 53.10709681 -0.09436627 51.52669304 -0.09336853 49.94628906 C-0.08957162 45.81010304 -0.07976582 41.67395277 -0.06866455 37.53778076 C-0.05838932 33.30774418 -0.05385788 29.07770175 -0.04882812 24.84765625 C-0.03814071 16.56508602 -0.02056716 8.2825516 0 0 Z " fill="#FC4805" transform="translate(277,217)"/>
<path d="M0 0 C0.89589844 0.00322266 1.79179687 0.00644531 2.71484375 0.00976562 C4.12056641 0.02233398 4.12056641 0.02233398 5.5546875 0.03515625 C6.49957031 0.03966797 7.44445312 0.04417969 8.41796875 0.04882812 C10.75527137 0.06063268 13.09244811 0.07709866 15.4296875 0.09765625 C15.45280965 11.81492413 15.47060193 23.53218662 15.48149967 35.24947262 C15.48672878 40.68967937 15.49382693 46.12987056 15.50512695 51.57006836 C15.51595485 56.81551327 15.52196412 62.06094317 15.52456474 67.30639839 C15.52641917 69.31236571 15.53004012 71.31833217 15.53541756 73.32429314 C15.54262669 76.12368449 15.5436785 78.92301304 15.54321289 81.72241211 C15.54680817 82.5603833 15.55040344 83.39835449 15.55410767 84.26171875 C15.54373966 89.98360409 15.54373966 89.98360409 14.4296875 91.09765625 C11.38689016 91.19832197 8.36675048 91.23380027 5.32348633 91.22705078 C4.36737457 91.2288031 3.41126282 91.23055542 2.42617798 91.23236084 C-0.75365991 91.23678336 -3.93344273 91.23383881 -7.11328125 91.23046875 C-9.31708283 91.23114195 -11.52088434 91.23211212 -13.72468567 91.23336792 C-18.35430607 91.23484566 -22.98390722 91.23268893 -27.61352539 91.22802734 C-33.54414762 91.22234667 -39.47472443 91.22559802 -45.40534496 91.23159981 C-49.9615564 91.2352176 -54.51775712 91.23406093 -59.07396889 91.23147202 C-61.260013 91.23080526 -63.44605809 91.23162241 -65.63210106 91.23395157 C-68.69380634 91.23649618 -71.7554388 91.23261118 -74.81713867 91.22705078 C-75.71971909 91.22907501 -76.6222995 91.23109924 -77.55223083 91.23318481 C-82.00656718 91.21822841 -86.18555112 90.99997235 -90.5703125 90.09765625 C-91.66942799 86.80030979 -91.6842581 84.3680688 -91.66796875 80.8984375 C-91.66474609 79.68994141 -91.66152344 78.48144531 -91.65820312 77.23632812 C-91.64982422 75.97369141 -91.64144531 74.71105469 -91.6328125 73.41015625 C-91.62604492 71.49879883 -91.62604492 71.49879883 -91.61914062 69.54882812 C-91.60734123 66.39839061 -91.59087847 63.24804676 -91.5703125 60.09765625 C-90.9103125 60.09765625 -90.2503125 60.09765625 -89.5703125 60.09765625 C-89.5703125 59.43765625 -89.5703125 58.77765625 -89.5703125 58.09765625 C-90.5603125 58.09765625 -91.5503125 58.09765625 -92.5703125 58.09765625 C-92.6130335 56.4315372 -92.61095082 54.7638274 -92.5703125 53.09765625 C-92.0753125 52.60265625 -92.0753125 52.60265625 -91.5703125 52.09765625 C-88.6003125 52.09765625 -85.6303125 52.09765625 -82.5703125 52.09765625 C-82.2403125 63.97765625 -81.9103125 75.85765625 -81.5703125 88.09765625 C-65.7303125 88.09765625 -49.8903125 88.09765625 -33.5703125 88.09765625 C-33.5703125 85.78765625 -33.5703125 83.47765625 -33.5703125 81.09765625 C-33.0657293 78.0386206 -32.31260674 75.11322659 -31.5703125 72.09765625 C-26.2903125 72.09765625 -21.0103125 72.09765625 -15.5703125 72.09765625 C-14.5803125 79.02765625 -14.5803125 79.02765625 -13.5703125 86.09765625 C-5.3203125 86.09765625 2.9296875 86.09765625 11.4296875 86.09765625 C10.9140625 84.11765625 10.3984375 82.13765625 9.8671875 80.09765625 C7.67353677 71.47913087 5.80995801 62.78842913 3.9296875 54.09765625 C0.29844643 37.02426655 0.29844643 37.02426655 -4.140625 20.1484375 C-5.02218807 15.94097738 -5.03741399 11.59501835 -5.2890625 7.3125 C-5.44616129 4.08286829 -5.44616129 4.08286829 -6.5703125 1.09765625 C-4.16971433 -0.10264283 -2.67670601 -0.01694118 0 0 Z " fill="#FBFBF8" transform="translate(392.5703125,211.90234375)"/>
<path d="M0 0 C6.93 0 13.86 0 21 0 C21.33 21.78 21.66 43.56 22 66 C29.59 66 37.18 66 45 66 C46.38226016 68.76452033 46.09525387 71.0461363 46.0625 74.125 C46.05347656 75.22070312 46.04445312 76.31640625 46.03515625 77.4453125 C46.02355469 78.28835938 46.01195312 79.13140625 46 80 C40.05517888 80.02467203 34.1103874 80.04284663 28.16552734 80.05493164 C26.14208457 80.05996831 24.11864544 80.06679789 22.09521484 80.07543945 C19.19107157 80.08753412 16.28697631 80.09323488 13.3828125 80.09765625 C12.47443634 80.10281754 11.56606018 80.10797882 10.63015747 80.11329651 C9.78943695 80.11337204 8.94871643 80.11344757 8.08251953 80.11352539 C6.96999313 80.11685631 6.96999313 80.11685631 5.83499146 80.12025452 C4 80 4 80 2 79 C-0.86152191 71.1750748 -0.25253418 62.90081779 -0.1953125 54.6875 C-0.19157696 53.10709818 -0.18873255 51.52669403 -0.18673706 49.94628906 C-0.17914315 45.81005326 -0.15953168 41.6739605 -0.1373291 37.53778076 C-0.11677872 33.30775893 -0.10771578 29.07771373 -0.09765625 24.84765625 C-0.07628128 16.56503158 -0.0411343 8.28255013 0 0 Z " fill="#FB4905" transform="translate(163,217)"/>
<path d="M0 0 C0.90540527 -0.00193359 1.81081055 -0.00386719 2.74365234 -0.00585938 C3.71254395 -0.00134766 4.68143555 0.00316406 5.6796875 0.0078125 C7.15429443 0.01071289 7.15429443 0.01071289 8.65869141 0.01367188 C16.98794161 0.06238885 25.25266743 0.46674785 33.5546875 1.1328125 C33.5546875 1.7928125 33.5546875 2.4528125 33.5546875 3.1328125 C32.1315625 3.225625 32.1315625 3.225625 30.6796875 3.3203125 C29.1328125 3.7225 29.1328125 3.7225 27.5546875 4.1328125 C26.35630541 6.46135713 26.35630541 6.46135713 25.5546875 9.1328125 C24.24140093 10.48589563 22.90969669 11.82151328 21.5546875 13.1328125 C21.2246875 14.1228125 20.8946875 15.1128125 20.5546875 16.1328125 C19.8946875 16.1328125 19.2346875 16.1328125 18.5546875 16.1328125 C17.39241712 21.74976328 17.33400838 27.28873289 17.23828125 33 C17.21750015 34.03472443 17.19671906 35.06944885 17.17530823 36.13552856 C17.1101593 39.42622524 17.05108941 42.71699867 16.9921875 46.0078125 C16.9489693 48.24479946 16.90535397 50.48177879 16.86132812 52.71875 C16.75376964 58.19002679 16.65443847 63.66136555 16.5546875 69.1328125 C8.9646875 69.1328125 1.3746875 69.1328125 -6.4453125 69.1328125 C-6.4453125 46.6928125 -6.4453125 24.2528125 -6.4453125 1.1328125 C-4.07870383 -0.05049183 -2.63854041 0.00367704 0 0 Z " fill="#FDFCFA" transform="translate(192.4453125,211.8671875)"/>
<path d="M0 0 C1.11954433 -0.00260775 2.23908866 -0.00521549 3.39255857 -0.00790226 C4.63795802 -0.00567154 5.88335746 -0.00344082 7.16649628 -0.0011425 C8.47746544 -0.00270249 9.78843461 -0.00426248 11.13913012 -0.00586975 C14.79485393 -0.01006765 18.45055185 -0.00797032 22.1062758 -0.00488353 C26.0422396 -0.00263151 29.97819878 -0.00610805 33.91416168 -0.00886345 C41.63138378 -0.01332227 49.34859618 -0.01234418 57.06581867 -0.00945081 C63.3348574 -0.00719721 69.60389341 -0.00688406 75.87293243 -0.00797462 C77.20863255 -0.00820447 77.20863255 -0.00820447 78.57131651 -0.00843897 C80.37998625 -0.00875868 82.18865598 -0.00908289 83.99732572 -0.00941156 C100.97809172 -0.01226668 117.95885234 -0.00897883 134.93961746 -0.00361119 C149.52643621 0.00085688 164.113247 0.00008095 178.70006561 -0.00452995 C195.61790266 -0.00987515 212.53573498 -0.01199199 229.45357275 -0.00891769 C231.25578403 -0.00859912 233.05799532 -0.00828475 234.8602066 -0.00797462 C235.7470503 -0.00782035 236.633894 -0.00766607 237.54761174 -0.00750712 C243.81291347 -0.0066418 250.07821222 -0.00810516 256.34351349 -0.01045418 C263.97337426 -0.01325177 271.60322474 -0.01251478 279.23308432 -0.00717343 C283.12983366 -0.00453587 287.02656581 -0.00353228 290.92331505 -0.00682259 C295.13777275 -0.01032747 299.35218661 -0.0061575 303.56664276 -0.0011425 C305.43474192 -0.00448858 305.43474192 -0.00448858 307.34058046 -0.00790226 C308.46012479 -0.00529452 309.57966912 -0.00268677 310.73313904 0 C311.70733905 0.00016235 312.68153907 0.0003247 313.6852603 0.00049198 C315.86656952 0.12584114 315.86656952 0.12584114 316.86656952 1.12584114 C316.99188106 4.07754494 317.05268082 7.00697636 317.07189178 9.96006966 C317.08179138 10.88680489 317.09169098 11.81354012 317.10189056 12.76835823 C317.13360653 15.84712818 317.15830272 18.92591359 317.18297577 22.00474739 C317.20353659 24.13324585 317.22453282 26.26174015 317.24594879 28.39023018 C317.30125956 34.00441818 317.35062899 39.61864357 317.39879608 45.2328968 C317.44894553 50.95701124 317.50466574 56.68107107 317.55992889 62.40513802 C317.66762054 73.6453258 317.7690409 84.8855609 317.86656952 96.12584114 C276.87971748 96.1487091 235.89286628 96.16634018 194.90600915 96.17690647 C190.07173629 96.17815724 185.23746345 96.17945156 180.40319061 96.18077278 C179.44073728 96.18103509 178.47828394 96.1812974 177.48666535 96.18156766 C161.8842862 96.18592394 146.28191071 96.19381126 130.67953373 96.20299394 C114.68080874 96.21233165 98.68208568 96.217897 82.68335807 96.21992964 C72.80412436 96.22130462 62.92490102 96.22565388 53.04567049 96.23375761 C46.27941233 96.23902651 39.51315957 96.2406451 32.7468995 96.23934252 C28.83788025 96.23869937 24.92887918 96.2397141 21.01986313 96.24504662 C16.79037795 96.25077445 12.56093192 96.24884041 8.33144379 96.24609566 C7.08438412 96.2490085 5.83732445 96.25192134 4.55247509 96.25492245 C3.42683962 96.2529314 2.30120415 96.25094035 1.14145851 96.24888897 C0.16405838 96.24926869 -0.81334175 96.24964841 -1.82036006 96.25003964 C-4.13343048 96.12584114 -4.13343048 96.12584114 -6.13343048 95.12584114 C-6.15655214 82.88703785 -6.17434466 70.64823971 -6.18524265 58.40941906 C-6.19047187 52.72707602 -6.19757021 47.04474787 -6.20886993 41.36241341 C-6.21969744 35.88354978 -6.22570702 30.40470052 -6.22830772 24.92582703 C-6.23016222 22.83054503 -6.2337833 20.73526386 -6.23916054 18.63998795 C-6.24636916 15.71606531 -6.2474215 12.79220281 -6.24695587 9.86827278 C-6.25055115 8.99289864 -6.25414642 8.11752449 -6.25785065 7.21562386 C-6.24533321 0.0010408 -6.24533321 0.0010408 0 0 Z M-5.13343048 1.12584114 C-5.13343048 31.81584114 -5.13343048 62.50584114 -5.13343048 94.12584114 C100.46656952 94.12584114 206.06656952 94.12584114 314.86656952 94.12584114 C314.86656952 63.43584114 314.86656952 32.74584114 314.86656952 1.12584114 C209.26656952 1.12584114 103.66656952 1.12584114 -5.13343048 1.12584114 Z " fill="#E58352" transform="translate(94.13343048095703,209.87415885925293)"/>
<path d="M0 0 C21.78 0 43.56 0 66 0 C66 0.33 66 0.66 66 1 C64.02 1 62.04 1 60 1 C60 11.89 60 22.78 60 34 C55.71 34 51.42 34 47 34 C46.67 24.1 46.34 14.2 46 4 C38.41 3.67 30.82 3.34 23 3 C23.01571045 5.55919189 23.0314209 8.11838379 23.04760742 10.75512695 C23.09726686 19.2008584 23.13043438 27.64659622 23.15543652 36.09243488 C23.17110742 41.21428956 23.19237168 46.33599493 23.22631836 51.45776367 C23.258861 56.39848998 23.27684228 61.33907249 23.28463173 66.27989769 C23.29018441 68.16700696 23.30102716 70.05410817 23.31719017 71.94115639 C23.33889682 74.57984184 23.34196978 77.21792941 23.34057617 79.85668945 C23.351362 80.6407164 23.36214783 81.42474335 23.3732605 82.23252869 C23.34321057 87.47398491 23.34321057 87.47398491 21.70259094 89.9884491 C18.75798231 91.73791307 15.50566665 91.34626594 12.1875 91.25 C11.48818359 91.24484375 10.78886719 91.2396875 10.06835938 91.234375 C5.95659885 91.17283321 2.03432899 90.78533249 -2 90 C0.75310359 88.16459761 2.45203717 87.52276432 5.5625 86.6875 C9.1668823 85.63383005 9.1668823 85.63383005 11.3125 82.6875 C11.539375 81.800625 11.76625 80.91375 12 80 C12.66 79.030625 13.32 78.06125 14 77.0625 C18.20045078 70.63055974 18.31913662 64.72080544 18.3359375 57.265625 C18.3425943 56.23242126 18.3492511 55.19921753 18.35610962 54.13470459 C18.36621209 51.95277683 18.37092739 49.77081831 18.37060547 47.58886719 C18.37496728 44.27486356 18.41128237 40.96220482 18.44921875 37.6484375 C18.4550899 35.52083785 18.45905729 33.39323192 18.4609375 31.265625 C18.47530853 30.28611877 18.48967957 29.30661255 18.50448608 28.29742432 C18.45001571 19.96853858 16.50925654 12.447042 11 6 C8.41501488 4.73152315 8.41501488 4.73152315 6 4 C6 3.01 6 2.02 6 1 C4.02 1 2.04 1 0 1 C0 0.67 0 0.34 0 0 Z " fill="#FDF4E6" transform="translate(252,212)"/>
<path d="M0 0 C7.26 0 14.52 0 22 0 C21.01 0.495 21.01 0.495 20 1 C20.01160156 1.59167969 20.02320312 2.18335938 20.03515625 2.79296875 C20.15477145 13.26784282 20.15477145 13.26784282 17 18 C16.65376968 19.97703387 16.65376968 19.97703387 16.5625 22.125 C16.26856169 25.49440394 15.63823107 28.27856732 14.4375 31.4375 C13.28831263 34.63333537 12.88858779 37.05200888 13.0625 40.4375 C13.24300387 45.62288403 12.28238747 50.39681997 11.1875 55.4375 C10.93915405 56.6284729 10.93915405 56.6284729 10.68579102 57.84350586 C10.51490967 58.59510986 10.34402832 59.34671387 10.16796875 60.12109375 C10.01610107 60.7958374 9.8642334 61.47058105 9.70776367 62.16577148 C8.86718986 64.34418855 7.67697492 65.4077718 6 67 C5.42982192 69.04100238 5.42982192 69.04100238 5.3125 71.1875 C5.209375 72.445625 5.10625 73.70375 5 75 C4.34 75 3.68 75 3 75 C2.67 77.64 2.34 80.28 2 83 C1.67 83 1.34 83 1 83 C0.09631857 78.3878481 -0.13763418 73.93397431 -0.11352539 69.25048828 C-0.11367142 68.49858719 -0.11381744 67.7466861 -0.1139679 66.97200012 C-0.11327528 64.50474082 -0.10551358 62.0375585 -0.09765625 59.5703125 C-0.09578975 57.85252931 -0.09436694 56.13474558 -0.09336853 54.41696167 C-0.08956159 49.90920527 -0.07974696 45.4014814 -0.06866455 40.89373779 C-0.05841115 36.288538 -0.05386251 31.68333293 -0.04882812 27.078125 C-0.03812298 18.05206679 -0.02054102 9.0260412 0 0 Z " fill="#FCFCF9" transform="translate(90,213)"/>
<path d="M0 0 C7.59 0 15.18 0 23 0 C24 1 24 1 24.11352539 3.86743164 C24.10828857 5.11903076 24.10305176 6.37062988 24.09765625 7.66015625 C24.0962413 8.32462265 24.09482635 8.98908905 24.09336853 9.6736908 C24.08775518 11.80333899 24.07520054 13.93288339 24.0625 16.0625 C24.05748671 17.50325369 24.05292351 18.94400903 24.04882812 20.38476562 C24.03778145 23.92321102 24.02050792 27.46159539 24 31 C28.29 31 32.58 31 37 31 C37 21.1 37 11.2 37 1 C44.59 1 52.18 1 60 1 C60.33 26.41 60.66 51.82 61 78 C62.98 68.595 62.98 68.595 65 59 C65.84244487 55.18393954 66.68955995 51.37136161 67.5625 47.5625 C67.77156982 46.64581543 67.98063965 45.72913086 68.19604492 44.78466797 C69.71289591 38.1677058 71.29479422 31.57128082 73 25 C73.33 25 73.66 25 74 25 C73.98839844 25.96421875 73.97679687 26.9284375 73.96484375 27.921875 C73.95582031 29.18515625 73.94679688 30.4484375 73.9375 31.75 C73.92589844 33.00296875 73.91429687 34.2559375 73.90234375 35.546875 C73.84310847 38.84395896 73.84310847 38.84395896 74.69140625 41.265625 C74.84416016 42.12414062 74.84416016 42.12414062 75 43 C73.6640625 44.53125 73.6640625 44.53125 72 46 C69.4180902 51.56103649 68.59660694 56.3750044 68.30859375 62.484375 C67.98579203 65.11582196 67.18003948 66.65828741 66 69 C65.64511711 71.58903196 65.4985178 74.14997501 65.34375 76.7578125 C65 79 65 79 63 81 C69.6 81.33 76.2 81.66 83 82 C82.979375 79.875625 82.95875 77.75125 82.9375 75.5625 C82.91626217 73.37500389 82.92741054 71.18639453 83 69 C84 68 84 68 85.76586914 67.88647461 C86.51473389 67.89171143 87.26359863 67.89694824 88.03515625 67.90234375 C88.84404297 67.90556641 89.65292969 67.90878906 90.48632812 67.91210938 C91.33646484 67.92048828 92.18660156 67.92886719 93.0625 67.9375 C93.91650391 67.94201172 94.77050781 67.94652344 95.65039062 67.95117188 C97.76695663 67.96299627 99.88348685 67.98093231 102 68 C102 68.33 102 68.66 102 69 C96.72 69 91.44 69 86 69 C85.7834375 71.0728125 85.7834375 71.0728125 85.5625 73.1875 C85.21187864 76.54344726 84.66679456 79.6660272 84 83 C68.49 83 52.98 83 37 83 C37 71.12 37 59.24 37 47 C37.33 47 37.66 47 38 47 C38 58.55 38 70.1 38 82 C43.94 81.67 49.88 81.34 56 81 C56.71498106 75.99513261 57.1438618 71.59180499 57.20532227 66.59594727 C57.21522186 65.892668 57.22512146 65.18938873 57.23532104 64.46479797 C57.26663411 62.16536703 57.29157252 59.8659155 57.31640625 57.56640625 C57.33700194 55.96214799 57.35799906 54.35789484 57.37937927 52.75364685 C57.4343301 48.55010132 57.48385733 44.34650903 57.53222656 40.1428833 C57.58263982 35.8458647 57.63822196 31.54891324 57.69335938 27.25195312 C57.80061039 18.83469087 57.90164923 10.41737096 58 2 C51.73 2 45.46 2 39 2 C39.01160156 4.07023438 39.02320313 6.14046875 39.03515625 8.2734375 C39.0421086 10.27571493 39.0490259 12.27799265 39.05493164 14.28027344 C39.0599643 15.67318477 39.06679098 17.0660908 39.07543945 18.45898438 C39.08755152 20.45961246 39.09270412 22.46027888 39.09765625 24.4609375 C39.10289307 25.66540527 39.10812988 26.86987305 39.11352539 28.11083984 C39 31 39 31 38 33 C33.05 33 28.1 33 23 33 C21.56490779 30.12981559 21.88841494 27.66456277 21.90234375 24.4609375 C21.90556641 23.15898437 21.90878906 21.85703125 21.91210938 20.515625 C21.92046534 19.13541601 21.92893029 17.75520768 21.9375 16.375 C21.94251499 14.98698074 21.9470779 13.59895978 21.95117188 12.2109375 C21.96299015 8.80727327 21.9809261 5.4036313 22 2 C15.4 2 8.8 2 2 2 C2.33 28.07 2.66 54.14 3 81 C9.27 81 15.54 81 22 81 C22 70.11 22 59.22 22 48 C22.99 47.505 22.99 47.505 24 47 C24 59.21 24 71.42 24 84 C16.08 84 8.16 84 0 84 C0 56.28 0 28.56 0 0 Z " fill="#E45C25" transform="translate(275,215)"/>
<path d="M0 0 C1.48831242 0.00667405 2.97660807 0.01863442 4.46484375 0.03515625 C5.22345703 0.03966797 5.98207031 0.04417969 6.76367188 0.04882812 C8.64326246 0.06064945 10.52281274 0.07858547 12.40234375 0.09765625 C13.06234375 5.04765625 13.72234375 9.99765625 14.40234375 15.09765625 C51.03234375 15.59265625 51.03234375 15.59265625 88.40234375 16.09765625 C88.40234375 14.11765625 88.40234375 12.13765625 88.40234375 10.09765625 C89.06234375 9.43765625 89.72234375 8.77765625 90.40234375 8.09765625 C90.40234375 9.41765625 90.40234375 10.73765625 90.40234375 12.09765625 C91.06234375 12.09765625 91.72234375 12.09765625 92.40234375 12.09765625 C92.40234375 12.75765625 92.40234375 13.41765625 92.40234375 14.09765625 C93.39234375 14.03578125 94.38234375 13.97390625 95.40234375 13.91015625 C99.13662756 13.89515913 101.85944174 14.94575385 105.26953125 16.36328125 C108.88535732 17.60829096 112.60579789 17.84279553 116.40234375 18.09765625 C116.40234375 18.75765625 116.40234375 19.41765625 116.40234375 20.09765625 C99.67697031 20.12108678 82.95160224 20.13868508 66.22621632 20.14946842 C58.45915488 20.1546099 50.69210369 20.16161135 42.92504883 20.1730957 C36.14995859 20.18310851 29.37487578 20.18952528 22.59977835 20.19174474 C19.0172777 20.19304071 15.43479827 20.19605524 11.85230446 20.20338631 C7.83878287 20.21153169 3.82529742 20.21164317 -0.18823242 20.21118164 C-1.94151855 20.21657455 -1.94151855 20.21657455 -3.73022461 20.22207642 C-11.39463549 20.21259914 -18.96488184 19.78862653 -26.59765625 19.09765625 C-26.59765625 18.76765625 -26.59765625 18.43765625 -26.59765625 18.09765625 C-19.62986222 16.77045739 -12.66776714 17.00940244 -5.59765625 17.09765625 C-5.53707031 15.95425781 -5.47648437 14.81085938 -5.4140625 13.6328125 C-5.32967197 12.1419132 -5.24502323 10.6510285 -5.16015625 9.16015625 C-5.12083984 8.40541016 -5.08152344 7.65066406 -5.04101562 6.87304688 C-4.64769929 0.12615905 -4.64769929 0.12615905 0 0 Z " fill="#FBFAF2" transform="translate(123.59765625,282.90234375)"/>
<path d="M0 0 C0.78761719 0.10570312 1.57523438 0.21140625 2.38671875 0.3203125 C3.02222656 0.50335938 3.65773437 0.68640625 4.3125 0.875 C5.55427521 3.35855041 5.43286681 5.00607622 5.42602539 7.78369141 C5.42594986 8.80459869 5.42587433 9.82550598 5.42579651 10.87734985 C5.42063522 11.98259003 5.41547394 13.0878302 5.41015625 14.2265625 C5.4087413 15.3557309 5.40732635 16.48489929 5.40586853 17.64828491 C5.40025744 21.26554988 5.38770303 24.88275364 5.375 28.5 C5.36998643 30.94791577 5.36542328 33.39583252 5.36132812 35.84375 C5.3502844 41.85418766 5.33353544 47.86458946 5.3125 53.875 C1.75743789 55.79044295 -0.60397472 56.38544066 -4.6875 55.875 C-6.84179688 54.5234375 -6.84179688 54.5234375 -8.6875 51.875 C-9.29706727 48.29573582 -9.24760564 44.74846385 -9.21875 41.125 C-9.2225769 40.07473633 -9.22640381 39.02447266 -9.23034668 37.94238281 C-9.23306696 35.72329753 -9.22569777 33.50418026 -9.20898438 31.28515625 C-9.18757745 27.88729405 -9.20878325 24.49154639 -9.234375 21.09375 C-9.23173175 18.93749533 -9.22660682 16.78124198 -9.21875 14.625 C-9.22684692 13.60825195 -9.23494385 12.59150391 -9.24328613 11.54394531 C-9.14992066 4.52572568 -9.14992066 4.52572568 -6.79956055 1.21826172 C-4.21249775 -0.42709945 -3.00259269 -0.46651853 0 0 Z " fill="#FCFCF8" transform="translate(241.6875,229.125)"/>
<path d="M0 0 C5.94 0 11.88 0 18 0 C17.67 24.09 17.34 48.18 17 73 C14.65310592 70.65310592 14.45581697 69.44032988 13.73828125 66.2421875 C13.50979492 65.23953857 13.28130859 64.23688965 13.04589844 63.20385742 C12.80387695 62.10533447 12.56185547 61.00681152 12.3125 59.875 C12.05629883 58.73587158 11.80009766 57.59674316 11.53613281 56.4230957 C10.83330155 53.28672175 10.13776928 50.14882993 9.44512939 47.01019287 C8.83410379 44.25081698 8.21498324 41.49327627 7.59635925 38.7355957 C6.96387681 35.91122361 6.33611844 33.08581745 5.70980835 30.2600708 C5.40769336 28.89829754 5.10452316 27.53675788 4.80020142 26.17547607 C2.86114484 17.48209519 1.26582136 8.81731451 0 0 Z " fill="#FBFCFA" transform="translate(144,213)"/>
<path d="M0 0 C5.61 0 11.22 0 17 0 C15.125 13.875 15.125 13.875 14 15 C13.80878925 16.54951807 13.67653578 18.106409 13.5703125 19.6640625 C13.49683594 20.62183594 13.42335938 21.57960937 13.34765625 22.56640625 C13.20095645 24.58159823 13.06018455 26.59723182 12.92578125 28.61328125 C12.46918636 34.40971465 11.59808984 38.79701904 9 44 C7.03965503 50.2485996 5.56581361 56.64279675 4 63 C3.34 63 2.68 63 2 63 C2 42.87 2 22.74 2 2 C1.34 2 0.68 2 0 2 C0 1.34 0 0.68 0 0 Z " fill="#FBFBF7" transform="translate(335,213)"/>
<path d="M0 0 C4.69388216 3.44218025 7.31215135 6.28790958 9 12 C9.43340283 15.62512913 9.44445959 19.21920987 9.43359375 22.8671875 C9.4388356 23.90134796 9.44407745 24.93550842 9.44947815 26.00100708 C9.45588016 28.18116359 9.45458505 30.36135472 9.44604492 32.54150391 C9.43754427 35.85772955 9.4663084 39.17222584 9.49804688 42.48828125 C9.49965945 44.61458282 9.49908027 46.74088741 9.49609375 48.8671875 C9.50732773 49.84871796 9.51856171 50.83024841 9.53013611 51.84152222 C9.4523732 59.61472474 7.34581902 65.17718382 3.3125 71.75 C-4.43969804 79.29267918 -13.210457 80.33532054 -23.66943359 80.38500977 C-31.49067909 80.21987276 -39.06766186 78.35003579 -45.13671875 73.1796875 C-49 68.87514569 -49 68.87514569 -49 66 C-49.66 66 -50.32 66 -51 66 C-51 69.96 -51 73.92 -51 78 C-75.42 78 -99.84 78 -125 78 C-125.88668636 72.67988187 -126.08070352 68.32643248 -126 63 C-133.92 63.495 -133.92 63.495 -142 64 C-142.66 68.62 -143.32 73.24 -144 78 C-151.92 78 -159.84 78 -168 78 C-167.67 75.36 -167.34 72.72 -167 70 C-166.67 70 -166.34 70 -166 70 C-166 72.31 -166 74.62 -166 77 C-163.2079699 76.8595017 -160.41650204 76.71284617 -157.625 76.5625 C-156.8309375 76.52318359 -156.036875 76.48386719 -155.21875 76.44335938 C-150.97398779 76.31106596 -150.97398779 76.31106596 -147 75 C-146.6433535 72.18745864 -146.55586944 69.39844707 -146.44140625 66.56640625 C-146.29574219 65.71949219 -146.15007812 64.87257813 -146 64 C-142.92030937 61.94687292 -142.28031295 61.75002246 -138.8046875 61.76953125 C-137.60779297 61.77243164 -137.60779297 61.77243164 -136.38671875 61.77539062 C-135.55785156 61.78763672 -134.72898438 61.79988281 -133.875 61.8125 C-133.03839844 61.81314453 -132.20179688 61.81378906 -131.33984375 61.81445312 C-125.14033163 61.85966837 -125.14033163 61.85966837 -124 63 C-123.34 67.29 -122.68 71.58 -122 76 C-87.845 76.495 -87.845 76.495 -53 77 C-53.33 72.38 -53.66 67.76 -54 63 C-61.59 63 -69.18 63 -77 63 C-77 62.67 -77 62.34 -77 62 C-68.75 62 -60.5 62 -52 62 C-52 45.5 -52 29 -52 12 C-51.67 12 -51.34 12 -51 12 C-50.970271 13.88319946 -50.970271 13.88319946 -50.93994141 15.80444336 C-50.86344064 20.49555344 -50.77479417 25.1863712 -50.68261719 29.87719727 C-50.64451021 31.90122678 -50.60962662 33.9253198 -50.578125 35.94946289 C-50.53207489 38.87148627 -50.47414916 41.79307924 -50.4140625 44.71484375 C-50.40251129 45.60896469 -50.39096008 46.50308563 -50.37905884 47.42430115 C-50.2825159 58.19735353 -50.2825159 58.19735353 -45 67 C-44.67 67.99 -44.34 68.98 -44 70 C-42.68352881 70.69937532 -41.34977849 71.36729133 -40 72 C-39.67 72.66 -39.34 73.32 -39 74 C-29.62410891 78.35309229 -17.38209046 78.72898995 -7.5 75.625 C-3.94959846 74.41830258 -3.94959846 74.41830258 -3 72 C-0.4375 71.375 -0.4375 71.375 2 71 C2 69.35 2 67.7 2 66 C2.639375 65.773125 3.27875 65.54625 3.9375 65.3125 C6.17156451 64.20311273 6.17156451 64.20311273 6.61621094 62.0144043 C7.14978744 57.82352069 7.1828174 53.67824533 7.203125 49.45703125 C7.20882507 48.53339279 7.21452515 47.60975433 7.22039795 46.65812683 C7.22982648 44.70560849 7.23637338 42.75307439 7.24023438 40.80053711 C7.24990998 37.84004297 7.28094155 34.88025242 7.3125 31.91992188 C7.31903401 30.01562909 7.32428292 28.11133137 7.328125 26.20703125 C7.3466452 24.89711967 7.3466452 24.89711967 7.36553955 23.56074524 C7.34045764 16.50696353 6.5995535 8.97091828 1.8125 3.5 C1.214375 3.005 0.61625 2.51 0 2 C0 1.34 0 0.68 0 0 Z " fill="#DE5D26" transform="translate(262,220)"/>
<path d="M0 0 C0.6836261 -0.00014603 1.3672522 -0.00029205 2.07159424 -0.0004425 C4.31159739 0.00024931 6.55151543 0.00800717 8.79150391 0.01586914 C10.35234532 0.01773592 11.91318733 0.0191586 13.47402954 0.02015686 C17.56750121 0.02396156 21.66093698 0.03377423 25.75439453 0.04486084 C29.9373323 0.05511911 34.12027591 0.05966392 38.30322266 0.06469727 C46.49985365 0.07539845 54.69645555 0.09245011 62.89306641 0.11352539 C62.23306641 0.44352539 61.57306641 0.77352539 60.89306641 1.11352539 C61.88306641 2.59852539 61.88306641 2.59852539 62.89306641 4.11352539 C63.1506692 6.8080506 62.98206694 9.39900914 62.89306641 12.11352539 C62.56306641 12.11352539 62.23306641 12.11352539 61.89306641 12.11352539 C61.39806641 8.15352539 61.39806641 8.15352539 60.89306641 4.11352539 C50.33306641 4.11352539 39.77306641 4.11352539 28.89306641 4.11352539 C27.66174789 11.08261926 27.66174789 11.08261926 26.44042969 18.0534668 C25.57388472 22.88820232 24.64032364 27.50139595 22.89306641 32.11352539 C22.56306641 32.11352539 22.23306641 32.11352539 21.89306641 32.11352539 C22.00752913 29.55016285 22.13426142 26.98839094 22.26806641 24.42602539 C22.31447266 23.34417969 22.31447266 23.34417969 22.36181641 22.24047852 C22.58893749 18.09551879 23.18461014 14.94460914 24.89306641 11.11352539 C25.30965775 9.35201259 25.68591759 7.58039406 26.01806641 5.80102539 C26.30681641 4.25415039 26.59556641 2.70727539 26.89306641 1.11352539 C21.28306641 1.11352539 15.67306641 1.11352539 9.89306641 1.11352539 C9.89306641 1.77352539 9.89306641 2.43352539 9.89306641 3.11352539 C10.55306641 3.11352539 11.21306641 3.11352539 11.89306641 3.11352539 C11.89306641 23.24352539 11.89306641 43.37352539 11.89306641 64.11352539 C12.55306641 64.11352539 13.21306641 64.11352539 13.89306641 64.11352539 C14.01681641 62.99977539 14.14056641 61.88602539 14.26806641 60.73852539 C14.69648354 57.36549469 15.21934132 54.02091859 15.83056641 50.67602539 C15.98396484 49.83168945 16.13736328 48.98735352 16.29541016 48.11743164 C16.49263672 47.45614258 16.68986328 46.79485352 16.89306641 46.11352539 C17.88306641 45.61852539 17.88306641 45.61852539 18.89306641 45.11352539 C18.26305339 52.00119575 17.02721545 58.56996869 15.45556641 65.30102539 C15.23835938 66.25944336 15.02115234 67.21786133 14.79736328 68.20532227 C13.70953297 72.93232063 12.54422649 77.54403584 10.89306641 82.11352539 C10.56306641 82.11352539 10.23306641 82.11352539 9.89306641 82.11352539 C9.89306641 56.37352539 9.89306641 30.63352539 9.89306641 4.11352539 C2.30306641 4.11352539 -5.28693359 4.11352539 -13.10693359 4.11352539 C-13.10693359 3.12352539 -13.10693359 2.13352539 -13.10693359 1.11352539 C-8.68058996 0.25987831 -4.50500061 -0.00813177 0 0 Z " fill="#FBD7BC" transform="translate(325.10693359375,211.886474609375)"/>
<path d="M0 0 C0.99 0.495 0.99 0.495 2 1 C1.67 32.02 1.34 63.04 1 95 C106.6 95.33 212.2 95.66 321 96 C321 96.33 321 96.66 321 97 C280.39534871 97.15029869 239.79068175 97.29532764 199.18598644 97.4332476 C194.39677729 97.44951941 189.60756828 97.46583503 184.81835938 97.48217773 C183.86487788 97.48543066 182.91139639 97.48868358 181.92902152 97.49203508 C166.47213038 97.54487286 151.01525413 97.60126378 135.55838044 97.6589582 C119.70882874 97.71803961 103.85926711 97.77332497 88.00968969 97.82505554 C78.22257407 97.85711975 68.43547843 97.89217679 58.6483873 97.93101191 C51.94521421 97.95732697 45.24203512 97.97996876 38.53883936 97.99967117 C34.66626672 98.01116372 30.79371789 98.02432439 26.92116737 98.04183006 C22.73111044 98.0607289 18.54106935 98.07191751 14.35098267 98.08229065 C13.11559584 98.08909444 11.88020902 98.09589823 10.60738623 98.10290819 C8.9346083 98.10514671 8.9346083 98.10514671 7.22803688 98.10743046 C6.25975004 98.11084794 5.2914632 98.11426542 4.29383433 98.11778647 C2 98 2 98 0 97 C0 64.99 0 32.98 0 0 Z " fill="#EB5018" transform="translate(87,210)"/>
<path d="M0 0 C7.59 0 15.18 0 23 0 C23 10.23 23 20.46 23 31 C22.67 31 22.34 31 22 31 C22 21.43 22 11.86 22 2 C15.4 2 8.8 2 2 2 C2.33 28.07 2.66 54.14 3 81 C9.27 81 15.54 81 22 81 C22 70.11 22 59.22 22 48 C22.99 47.505 22.99 47.505 24 47 C24 59.21 24 71.42 24 84 C16.08 84 8.16 84 0 84 C0 56.28 0 28.56 0 0 Z " fill="#E5703F" transform="translate(275,215)"/>
<path d="M0 0 C0.495 1.98 0.495 1.98 1 4 C1.66 4 2.32 4 3 4 C3 4.66 3 5.32 3 6 C3.99 5.938125 4.98 5.87625 6 5.8125 C9.73428381 5.79750288 12.45709799 6.8480976 15.8671875 8.265625 C19.48301357 9.51063471 23.20345414 9.74513928 27 10 C27 10.66 27 11.32 27 12 C-5.34 12 -37.68 12 -71 12 C-71 11.34 -71 10.68 -71 10 C-68.15523215 8.57761608 -65.71127112 8.83575442 -62.53076172 8.79467773 C-61.86722687 8.78477814 -61.20369202 8.77487854 -60.52005005 8.76467896 C-58.32329903 8.73305084 -56.12652637 8.70830146 -53.9296875 8.68359375 C-52.40796339 8.66302534 -50.886245 8.6420289 -49.36453247 8.62062073 C-45.3565535 8.56538829 -41.34852287 8.51598422 -37.3404541 8.46777344 C-33.25166213 8.41756695 -29.16294532 8.36187644 -25.07421875 8.30664062 C-17.04954268 8.19904472 -9.0248038 8.09760296 -1 8 C-1.020625 7.05125 -1.04125 6.1025 -1.0625 5.125 C-1 2 -1 2 0 0 Z " fill="#FCFAF8" transform="translate(213,291)"/>
<path d="M0 0 C3.3 0 6.6 0 10 0 C10 10.23 10 20.46 10 31 C7.03 31 4.06 31 1 31 C0.67 20.77 0.34 10.54 0 0 Z " fill="#FBFCFB" transform="translate(300,213)"/>
<path d="M0 0 C1.54074116 -0.08221346 3.08280654 -0.13973295 4.625 -0.1875 C5.91277344 -0.23970703 5.91277344 -0.23970703 7.2265625 -0.29296875 C10.63893801 0.06749345 12.98175069 1.41788262 16 3 C16.02534293 10.04751824 16.04286391 17.09502473 16.05493164 24.14257812 C16.0599622 26.54036905 16.06678733 28.93815691 16.07543945 31.3359375 C16.08756082 34.78125771 16.09324108 38.22653737 16.09765625 41.671875 C16.10281754 42.74491882 16.10797882 43.81796265 16.11329651 44.92352295 C16.11340981 46.42462616 16.11340981 46.42462616 16.11352539 47.95605469 C16.115746 48.83541687 16.11796661 49.71477905 16.12025452 50.62078857 C16.0042325 52.91626081 15.76625186 54.83326417 15 57 C12.11584117 58.44207941 9.58278472 58.09394887 6.375 58.0625 C5.18648437 58.05347656 3.99796875 58.04445313 2.7734375 58.03515625 C1.85820312 58.02355469 0.94296875 58.01195312 0 58 C-1.56376113 54.52325327 -2.25164159 51.80385693 -2.25878906 47.99780273 C-2.26824554 46.5462101 -2.26824554 46.5462101 -2.27789307 45.06529236 C-2.2738446 44.03183182 -2.26979614 42.99837128 -2.265625 41.93359375 C-2.26753845 40.86254898 -2.2694519 39.79150421 -2.27142334 38.68800354 C-2.27278221 36.42782353 -2.26910662 34.16763564 -2.26074219 31.9074707 C-2.25002817 28.44659939 -2.26065321 24.98624593 -2.2734375 21.52539062 C-2.27211606 19.32812385 -2.26955398 17.13085741 -2.265625 14.93359375 C-2.26967346 13.89810898 -2.27372192 12.86262421 -2.27789307 11.79576111 C-2.27158875 10.83118484 -2.26528442 9.86660858 -2.25878906 8.87280273 C-2.25719788 8.02628647 -2.25560669 7.1797702 -2.25396729 6.30760193 C-1.97841289 3.80385479 -1.25625744 2.16493785 0 0 Z M0.88793945 2.34326172 C-2.09009353 6.53399686 -1.57121581 10.73140768 -1.53125 15.75 C-1.53699036 17.32539551 -1.53699036 17.32539551 -1.54284668 18.93261719 C-1.54556696 21.15170247 -1.53819777 23.37081974 -1.52148438 25.58984375 C-1.50007745 28.98770595 -1.52128325 32.38345361 -1.546875 35.78125 C-1.54423175 37.93750467 -1.53910682 40.09375802 -1.53125 42.25 C-1.53934692 43.26674805 -1.54744385 44.28349609 -1.55578613 45.33105469 C-1.55583823 50.85653929 -1.55583823 50.85653929 0.88793945 55.65893555 C3.48694308 57.30918719 4.68026069 57.31453499 7.6875 56.8125 C8.47511719 56.69519531 9.26273438 56.57789063 10.07421875 56.45703125 C11.99607325 56.17883348 11.99607325 56.17883348 13 55 C13.09853953 53.41466455 13.12798689 51.82496659 13.12939453 50.23657227 C13.13254669 49.22204483 13.13569885 48.2075174 13.13894653 47.1622467 C13.1369223 46.05811935 13.13489807 44.953992 13.1328125 43.81640625 C13.13376923 42.69056625 13.13472595 41.56472626 13.13571167 40.4047699 C13.13639373 38.01813705 13.13453764 35.63150236 13.13037109 33.24487305 C13.12502819 29.58182623 13.13031268 25.91890232 13.13671875 22.25585938 C13.13605788 19.94270806 13.13477652 17.62955682 13.1328125 15.31640625 C13.13584885 13.66325157 13.13584885 13.66325157 13.13894653 11.97669983 C13.13421829 10.45018044 13.13421829 10.45018044 13.12939453 8.89282227 C13.12859894 7.99427017 13.12780334 7.09571808 13.12698364 6.16993713 C13.14024258 3.95198702 13.14024258 3.95198702 12 2 C10.0195898 1.37865429 10.0195898 1.37865429 7.6875 1.125 C6.90761719 1.00382813 6.12773437 0.88265625 5.32421875 0.7578125 C2.91370829 0.83422654 2.91370829 0.83422654 0.88793945 2.34326172 Z " fill="#E66C3A" transform="translate(234,228)"/>
<path d="M0 0 C2.57879974 2.57879974 2.43589206 4.00822416 2.81640625 7.6015625 C2.94080078 8.73207031 3.06519531 9.86257812 3.19335938 11.02734375 C3.31517578 12.21457031 3.43699219 13.40179688 3.5625 14.625 C3.81359684 16.950543 4.06489428 19.27606436 4.31640625 21.6015625 C4.43258301 22.70145508 4.54875977 23.80134766 4.66845703 24.93457031 C5.06809155 28.62957111 5.52223394 32.3143761 6 36 C2.37 36 -1.26 36 -5 36 C-4.05018242 27.17882184 -3.08765131 18.36016792 -1.9375 9.5625 C-1.78152344 8.36753906 -1.62554687 7.17257813 -1.46484375 5.94140625 C-1 3 -1 3 0 0 Z " fill="#FDDFC4" transform="translate(369,232)"/>
<path d="M0 0 C0.33 0 0.66 0 1 0 C1.25485425 3.26936494 1.47442831 6.54016741 1.6875 9.8125 C1.76033203 10.74126953 1.83316406 11.67003906 1.90820312 12.62695312 C1.96298828 13.51962891 2.01777344 14.41230469 2.07421875 15.33203125 C2.16062622 16.56530151 2.16062622 16.56530151 2.2487793 17.82348633 C2 20 2 20 0.71923828 21.77124023 C-2.15502701 23.82551135 -5.4196346 23.34843309 -8.8125 23.25 C-9.51181641 23.24484375 -10.21113281 23.2396875 -10.93164062 23.234375 C-15.04340115 23.17283321 -18.96567101 22.78533249 -23 22 C-20.24689641 20.16459761 -18.54796283 19.52276432 -15.4375 18.6875 C-13.04422983 17.97861436 -13.04422983 17.97861436 -11 17 C-9.75285597 14.59047977 -9.75285597 14.59047977 -9 12 C-7.5459375 11.1028125 -7.5459375 11.1028125 -6.0625 10.1875 C-1.92389166 7.23135119 -1.4396552 4.79885065 0 0 Z " fill="#FAFAF4" transform="translate(273,280)"/>
<path d="M0 0 C0.66 0 1.32 0 2 0 C3.33333333 2 4.66666667 4 6 6 C14.966288 13.63088341 25.86575949 13.790248 37 13 C41.98629524 12.32477252 45.72690295 10.63926583 50 8 C50.99 8.495 50.99 8.495 52 9 C49.27521226 12.36591427 45.93143208 13.44226276 42 15 C42.99 15.66 43.98 16.32 45 17 C39.72 17 34.44 17 29 17 C29 16.34 29 15.68 29 15 C28.443125 15.03480469 27.88625 15.06960938 27.3125 15.10546875 C22.25691783 15.28480528 18.57213936 14.71067981 13.9296875 12.734375 C10.98664707 11.61435151 8.12254972 11.3252656 5 11 C5 10.34 5 9.68 5 9 C4.34 9 3.68 9 3 9 C2.505 8.01 2.505 8.01 2 7 C1.67 8.98 1.34 10.96 1 13 C-23.42 13 -47.84 13 -73 13 C-73 12.67 -73 12.34 -73 12 C-48.91 12 -24.82 12 0 12 C0 8.04 0 4.08 0 0 Z " fill="#F7D3B5" transform="translate(211,286)"/>
<path d="M0 0 C0.66 0 1.32 0 2 0 C2.67545765 4.18613079 3.33879077 8.37409696 4 12.5625 C4.19078125 13.74392578 4.3815625 14.92535156 4.578125 16.14257812 C5.468456 21.81843825 6.27010492 27.25182969 6 33 C2.7 33 -0.6 33 -4 33 C-4.22509402 25.36087158 -3.41196012 18.37365306 -2 10.875 C-1.80921875 9.823125 -1.6184375 8.77125 -1.421875 7.6875 C-0.95568717 5.12346691 -0.48162053 2.56117085 0 0 Z " fill="#FBE0C5" transform="translate(127,235)"/>
<path d="M0 0 C0.33 0 0.66 0 1 0 C1 27.06 1 54.12 1 82 C0.67 82 0.34 82 0 82 C-0.495 74.575 -0.495 74.575 -1 67 C-1.99 68.98 -2.98 70.96 -4 73 C-6.1875 74.375 -6.1875 74.375 -8 75 C-7.71125 74.29875 -7.4225 73.5975 -7.125 72.875 C-6.75375 71.92625 -6.3825 70.9775 -6 70 C-5.65533691 69.17032715 -5.31067383 68.3406543 -4.95556641 67.48583984 C-3.65742064 62.75029432 -3.64385867 58.24163417 -3.5859375 53.3515625 C-3.56657135 52.33903412 -3.5472052 51.32650574 -3.5272522 50.28329468 C-3.46769277 47.06394758 -3.42116552 43.84456426 -3.375 40.625 C-3.33679849 38.43618272 -3.2977455 36.24738012 -3.2578125 34.05859375 C-3.16201077 28.70585995 -3.07689467 23.353037 -3 18 C-2.67 18 -2.34 18 -2 18 C-1.67 25.26 -1.34 32.52 -1 40 C-0.67 26.8 -0.34 13.6 0 0 Z " fill="#FEE2C5" transform="translate(274,216)"/>
<path d="M0 0 C0.78761719 0.10570312 1.57523438 0.21140625 2.38671875 0.3203125 C3.02222656 0.50335938 3.65773437 0.68640625 4.3125 0.875 C5.55427521 3.35855041 5.43286681 5.00607622 5.42602539 7.78369141 C5.42594986 8.80459869 5.42587433 9.82550598 5.42579651 10.87734985 C5.42063522 11.98259003 5.41547394 13.0878302 5.41015625 14.2265625 C5.4087413 15.3557309 5.40732635 16.48489929 5.40586853 17.64828491 C5.40025744 21.26554988 5.38770303 24.88275364 5.375 28.5 C5.36998643 30.94791577 5.36542328 33.39583252 5.36132812 35.84375 C5.3502844 41.85418766 5.33353544 47.86458946 5.3125 53.875 C1.75743789 55.79044295 -0.60397472 56.38544066 -4.6875 55.875 C-6.84179688 54.5234375 -6.84179688 54.5234375 -8.6875 51.875 C-9.29706727 48.29573582 -9.24760564 44.74846385 -9.21875 41.125 C-9.2225769 40.07473633 -9.22640381 39.02447266 -9.23034668 37.94238281 C-9.23306696 35.72329753 -9.22569777 33.50418026 -9.20898438 31.28515625 C-9.18757745 27.88729405 -9.20878325 24.49154639 -9.234375 21.09375 C-9.23173175 18.93749533 -9.22660682 16.78124198 -9.21875 14.625 C-9.22684692 13.60825195 -9.23494385 12.59150391 -9.24328613 11.54394531 C-9.14992066 4.52572568 -9.14992066 4.52572568 -6.79956055 1.21826172 C-4.21249775 -0.42709945 -3.00259269 -0.46651853 0 0 Z M-6.29467773 2.99560547 C-8.32838617 5.73977506 -8.04309988 7.85152909 -8.015625 11.23828125 C-8.01046875 12.51896484 -8.0053125 13.79964844 -8 15.11914062 C-7.9896875 15.78921143 -7.979375 16.45928223 -7.96875 17.1496582 C-7.93819901 19.14191688 -7.92977774 21.13447589 -7.921875 23.12695312 C-8.68654308 38.13194773 -8.68654308 38.13194773 -4.6875 51.875 C-4.0275 51.875 -3.3675 51.875 -2.6875 51.875 C-2.6875 52.535 -2.6875 53.195 -2.6875 53.875 C0.2825 53.38 0.2825 53.38 3.3125 52.875 C4.09617861 50.09923457 4.43862645 47.63352394 4.44189453 44.75244141 C4.44504669 43.95125885 4.44819885 43.15007629 4.45144653 42.32461548 C4.4494223 41.467258 4.44739807 40.60990051 4.4453125 39.7265625 C4.44626923 38.83641449 4.44722595 37.94626648 4.44821167 37.02914429 C4.44889143 35.14800953 4.44705138 33.26687242 4.44287109 31.38574219 C4.43753262 28.51752398 4.44281649 25.64946326 4.44921875 22.78125 C4.44855768 20.95052049 4.44727594 19.11979108 4.4453125 17.2890625 C4.44733673 16.43575348 4.44936096 15.58244446 4.45144653 14.70327759 C4.4343113 10.3137565 4.19369417 6.19696426 3.3125 1.875 C1.4253125 1.7821875 1.4253125 1.7821875 -0.5 1.6875 C-1.20769531 1.65269531 -1.91539062 1.61789063 -2.64453125 1.58203125 C-4.72857811 1.72461627 -4.72857811 1.72461627 -6.29467773 2.99560547 Z " fill="#FDCFB0" transform="translate(241.6875,229.125)"/>
<path d="M0 0 C4.69388216 3.44218025 7.31215135 6.28790958 9 12 C9.43340283 15.62512913 9.44445959 19.21920987 9.43359375 22.8671875 C9.4388356 23.90134796 9.44407745 24.93550842 9.44947815 26.00100708 C9.45588016 28.18116359 9.45458505 30.36135472 9.44604492 32.54150391 C9.43754427 35.85772955 9.4663084 39.17222584 9.49804688 42.48828125 C9.49965945 44.61458282 9.49908027 46.74088741 9.49609375 48.8671875 C9.51294472 50.33948318 9.51294472 50.33948318 9.53013611 51.84152222 C9.4523732 59.61472474 7.34581902 65.17718382 3.3125 71.75 C-4.09866861 78.96086676 -12.32042988 80.17840699 -22.25 80.1875 C-22.96929687 80.19974609 -23.68859375 80.21199219 -24.4296875 80.22460938 C-26.28795986 80.22982924 -28.14577197 80.12264513 -30 80 C-30.66 79.34 -31.32 78.68 -32 78 C-30.09927734 77.94392578 -30.09927734 77.94392578 -28.16015625 77.88671875 C-26.46091069 77.82100207 -24.7616932 77.75455677 -23.0625 77.6875 C-22.23169922 77.66494141 -21.40089844 77.64238281 -20.54492188 77.61914062 C-14.74046946 77.37070103 -9.28350291 76.55250055 -4 74 C-3.67 73.34 -3.34 72.68 -3 72 C-0.4375 71.375 -0.4375 71.375 2 71 C2 69.35 2 67.7 2 66 C2.639375 65.773125 3.27875 65.54625 3.9375 65.3125 C6.17156451 64.20311273 6.17156451 64.20311273 6.61621094 62.0144043 C7.14978744 57.82352069 7.1828174 53.67824533 7.203125 49.45703125 C7.21167511 48.07157356 7.21167511 48.07157356 7.22039795 46.65812683 C7.22982648 44.70560849 7.23637338 42.75307439 7.24023438 40.80053711 C7.24990998 37.84004297 7.28094155 34.88025242 7.3125 31.91992188 C7.31903401 30.01562909 7.32428292 28.11133137 7.328125 26.20703125 C7.3404718 25.33375687 7.3528186 24.46048248 7.36553955 23.56074524 C7.34045764 16.50696353 6.5995535 8.97091828 1.8125 3.5 C1.214375 3.005 0.61625 2.51 0 2 C0 1.34 0 0.68 0 0 Z " fill="#DF7042" transform="translate(262,220)"/>
<path d="M0 0 C7.59 0 15.18 0 23 0 C23 21.45 23 42.9 23 65 C22.67 65 22.34 65 22 65 C22 43.88 22 22.76 22 1 C15.07 1 8.14 1 1 1 C1.33 26.08 1.66 51.16 2 77 C0.515 77.495 0.515 77.495 -1 78 C-0.67 52.26 -0.34 26.52 0 0 Z " fill="#DC5E2A" transform="translate(162,216)"/>
<path d="M0 0 C0.33 0 0.66 0 1 0 C1.01981934 1.25546631 1.03963867 2.51093262 1.06005859 3.80444336 C1.13655936 8.49555344 1.22520583 13.1863712 1.31738281 17.87719727 C1.35548979 19.90122678 1.39037338 21.9253198 1.421875 23.94946289 C1.46792511 26.87148627 1.52585084 29.79307924 1.5859375 32.71484375 C1.59748871 33.60896469 1.60903992 34.50308563 1.62094116 35.42430115 C1.7174841 46.19735353 1.7174841 46.19735353 7 55 C7.33 55.99 7.66 56.98 8 58 C9.31647119 58.69937532 10.65022151 59.36729133 12 60 C12.33 60.66 12.66 61.32 13 62 C15.11327425 62.90725434 15.11327425 62.90725434 17.5625 63.625 C18.38878906 63.88539063 19.21507812 64.14578125 20.06640625 64.4140625 C20.70449219 64.60742188 21.34257812 64.80078125 22 65 C22 65.33 22 65.66 22 66 C15.10643788 65.4057274 9.85963898 64.37504056 5.125 58.9375 C3 56 3 56 3 54 C2.34 54 1.68 54 1 54 C1 57.96 1 61.92 1 66 C0.67 66 0.34 66 0 66 C0 61.05 0 56.1 0 51 C-8.25 51 -16.5 51 -25 51 C-25 50.67 -25 50.34 -25 50 C-16.75 50 -8.5 50 0 50 C0 33.5 0 17 0 0 Z " fill="#E2703D" transform="translate(210,232)"/>
<path d="M0 0 C0.33 0 0.66 0 1 0 C1 23.1 1 46.2 1 70 C-1.18910344 67.81089656 -1.42348478 66.97359588 -2.0703125 64.04296875 C-2.24433594 63.25986328 -2.41835937 62.47675781 -2.59765625 61.66992188 C-2.85869141 60.44112305 -2.85869141 60.44112305 -3.125 59.1875 C-3.30675781 58.37990234 -3.48851562 57.57230469 -3.67578125 56.74023438 C-4.54092474 52.76903063 -5.24893382 49.09081252 -5 45 C-3.515 44.505 -3.515 44.505 -2 44 C-2.01160156 43.21753906 -2.02320313 42.43507813 -2.03515625 41.62890625 C-2.04417969 40.61699219 -2.05320313 39.60507813 -2.0625 38.5625 C-2.07410156 37.55316406 -2.08570313 36.54382813 -2.09765625 35.50390625 C-2 33 -2 33 -1 32 C-0.84028023 29.62661361 -0.7407567 27.27881728 -0.68359375 24.90234375 C-0.66281265 24.19348526 -0.64203156 23.48462677 -0.62062073 22.75428772 C-0.55505402 20.48212695 -0.4962077 18.20984736 -0.4375 15.9375 C-0.39432151 14.40037817 -0.35070745 12.8632685 -0.30664062 11.32617188 C-0.19936551 7.5509041 -0.09811863 3.7755164 0 0 Z " fill="#FEF8E8" transform="translate(160,216)"/>
<path d="M0 0 C5.28 0 10.56 0 16 0 C16.66 4.62 17.32 9.24 18 14 C26.25 14 34.5 14 43 14 C42.34 10.7 41.68 7.4 41 4 C41.66 4 42.32 4 43 4 C43.96070434 6.88211302 44.10581883 8.69850044 44.0625 11.6875 C44.05347656 12.49574219 44.04445313 13.30398438 44.03515625 14.13671875 C44.02355469 14.75160156 44.01195312 15.36648438 44 16 C40.44986171 16.83088343 37.33590633 17.07031086 33.69921875 16.87890625 C32.72275391 16.83056641 31.74628906 16.78222656 30.74023438 16.73242188 C29.73283203 16.67634766 28.72542969 16.62027344 27.6875 16.5625 C26.66076172 16.51029297 25.63402344 16.45808594 24.57617188 16.40429688 C22.05043913 16.27507334 19.52514739 16.14012709 17 16 C17 15.34 17 14.68 17 14 C16.34 14 15.68 14 15 14 C14.67 10.04 14.34 6.08 14 2 C12.22625 2.103125 10.4525 2.20625 8.625 2.3125 C7.12839844 2.39951172 7.12839844 2.39951172 5.6015625 2.48828125 C4.74304688 2.65714844 3.88453125 2.82601563 3 3 C1.06604999 5.90092502 0.69868059 6.89674737 0.375 10.1875 C0.25125 11.445625 0.1275 12.70375 0 14 C-0.66 14 -1.32 14 -2 14 C-1.85795259 12.41632253 -1.71119847 10.83306682 -1.5625 9.25 C-1.48128906 8.36828125 -1.40007812 7.4865625 -1.31640625 6.578125 C-1 4 -1 4 0 0 Z " fill="#FEEDD6" transform="translate(361,284)"/>
<path d="M0 0 C2.07641965 3.11462947 2.64282704 5.15838287 3.4375 8.77734375 C3.69273437 9.93169922 3.94796875 11.08605469 4.2109375 12.27539062 C4.60152344 14.08813477 4.60152344 14.08813477 5 15.9375 C5.39058594 17.69803711 5.39058594 17.69803711 5.7890625 19.49414062 C7.42934001 26.98722653 8.73495497 34.40972983 10 42 C1.75 42 -6.5 42 -15 42 C-17 32 -17 32 -16 28 C-15.67 29.98 -15.34 31.96 -15 34 C-14.34 34 -13.68 34 -13 34 C-13 35.98 -13 37.96 -13 40 C-6.4 40.33 0.2 40.66 7 41 C6.54625 38.421875 6.0925 35.84375 5.625 33.1875 C5.41738037 31.97549927 5.41738037 31.97549927 5.20556641 30.73901367 C4.57037611 27.24721927 3.99148395 24.98722593 2 22 C0.20623887 14.7253021 -0.29727105 7.46480627 0 0 Z " fill="#DF632F" transform="translate(394,256)"/>
<path d="M0 0 C0.33 0 0.66 0 1 0 C1 11.55 1 23.1 1 35 C15.85 35 30.7 35 46 35 C46 30.71 46 26.42 46 22 C47 21 47 21 48.76586914 20.88647461 C49.51473389 20.89171143 50.26359863 20.89694824 51.03515625 20.90234375 C51.84404297 20.90556641 52.65292969 20.90878906 53.48632812 20.91210938 C54.33646484 20.92048828 55.18660156 20.92886719 56.0625 20.9375 C56.91650391 20.94201172 57.77050781 20.94652344 58.65039062 20.95117188 C60.76695663 20.96299627 62.88348685 20.98093231 65 21 C65 21.33 65 21.66 65 22 C59.72 22 54.44 22 49 22 C48.855625 23.381875 48.71125 24.76375 48.5625 26.1875 C48.21187864 29.54344726 47.66679456 32.6660272 47 36 C31.49 36 15.98 36 0 36 C0 24.12 0 12.24 0 0 Z " fill="#DE6231" transform="translate(312,262)"/>
<path d="M0 0 C0.33 0 0.66 0 1 0 C1 20.13 1 40.26 1 61 C1.66 61 2.32 61 3 61 C3.12375 59.88625 3.2475 58.7725 3.375 57.625 C3.80341714 54.2519693 4.32627491 50.9073932 4.9375 47.5625 C5.16759766 46.29599609 5.16759766 46.29599609 5.40234375 45.00390625 C5.59957031 44.34261719 5.79679687 43.68132812 6 43 C6.99 42.505 6.99 42.505 8 42 C7.36624893 49.56490197 5.76765871 56.7036484 3.9375 64.0625 C3.51500977 65.79016602 3.51500977 65.79016602 3.08398438 67.55273438 C2.39433819 70.3697637 1.69957333 73.18542267 1 76 C0.67 76 0.34 76 0 76 C0 50.92 0 25.84 0 0 Z " fill="#FEEDD6" transform="translate(336,215)"/>
<path d="M0 0 C11.22 0.33 22.44 0.66 34 1 C34 1.33 34 1.66 34 2 C23.44 2 12.88 2 2 2 C1.67 4.64 1.34 7.28 1 10 C0.13051301 14.44173283 -0.9117431 18.84195116 -1.9375 23.25 C-2.20240234 24.42046875 -2.46730469 25.5909375 -2.74023438 26.796875 C-2.99998047 27.9209375 -3.25972656 29.045 -3.52734375 30.203125 C-3.87913696 31.72921387 -3.87913696 31.72921387 -4.23803711 33.28613281 C-4.92701843 35.74006307 -5.76823936 37.77826018 -7 40 C-8.27336761 35.36957232 -7.68331733 32.77767072 -5.828125 28.41796875 C-4.44311127 24.37398999 -4.05336615 20.18134315 -3.52734375 15.953125 C-3.03622077 13.20283629 -2.25943031 11.44600101 -1 9 C-0.95977609 6.6670134 -0.95679753 4.33293334 -1 2 C-0.67 1.34 -0.34 0.68 0 0 Z " fill="#F8CFB7" transform="translate(110,214)"/>
<path d="M0 0 C0.66 0.33 1.32 0.66 2 1 C4.28888995 8.50247261 4.7052746 16.19012096 4 24 C2 26 2 26 -0.8203125 26.1953125 C-1.91085938 26.17210937 -3.00140625 26.14890625 -4.125 26.125 C-5.22070312 26.10695313 -6.31640625 26.08890625 -7.4453125 26.0703125 C-8.28835937 26.04710937 -9.13140625 26.02390625 -10 26 C-10.625 23.1875 -10.625 23.1875 -11 20 C-10.01 18.515 -10.01 18.515 -9 17 C-8.33386665 14.72461677 -8.33386665 14.72461677 -7.875 12.3125 C-7.62363281 11.10013672 -7.62363281 11.10013672 -7.3671875 9.86328125 C-7.18542969 8.94095703 -7.18542969 8.94095703 -7 8 C-6.67 8 -6.34 8 -6 8 C-6.33 12.95 -6.66 17.9 -7 23 C-3.7 23 -0.4 23 3 23 C2.01 15.41 1.02 7.82 0 0 Z " fill="#E55F2A" transform="translate(130,245)"/>
<path d="M0 0 C0.66 0.33 1.32 0.66 2 1 C1.67 16.51 1.34 32.02 1 48 C0.67 48 0.34 48 0 48 C-0.69293378 43.92690142 -1.07661614 39.9878528 -1.17578125 35.85546875 C-1.19962891 34.93056641 -1.22347656 34.00566406 -1.24804688 33.05273438 C-1.290747 31.1545199 -1.3221427 29.25601483 -1.34179688 27.35742188 C-1.5456315 20.52659164 -3.07513245 15.1678197 -6 9 C-5.01 9 -4.02 9 -3 9 C-3 10.65 -3 12.3 -3 14 C-2.34 14 -1.68 14 -1 14 C-1.01160156 13.07316406 -1.02320313 12.14632812 -1.03515625 11.19140625 C-1.04417969 9.99386719 -1.05320312 8.79632813 -1.0625 7.5625 C-1.07410156 6.36753906 -1.08570313 5.17257813 -1.09765625 3.94140625 C-1 1 -1 1 0 0 Z " fill="#FEF7E8" transform="translate(273,215)"/>
<path d="M0 0 C0.33 0 0.66 0 1 0 C1.29883729 7.47093223 0.15925507 14.63044989 -1 22 C-1.66 22 -2.32 22 -3 22 C-3.10957031 22.81082031 -3.21914062 23.62164062 -3.33203125 24.45703125 C-5.46618474 39.36140403 -5.46618474 39.36140403 -8 46 C-8.99 46.495 -8.99 46.495 -10 47 C-9.41214929 40.77745125 -8.41561601 34.87538272 -6.93359375 28.80859375 C-6.63606956 27.56252098 -6.63606956 27.56252098 -6.33253479 26.29127502 C-5.70593565 23.67210019 -5.07185923 21.05480491 -4.4375 18.4375 C-4.00796504 16.64790603 -3.57892402 14.85819344 -3.15039062 13.06835938 C-2.1059596 8.71084876 -1.05482479 4.35500574 0 0 Z " fill="#E06735" transform="translate(106,242)"/>
<path d="M0 0 C10.89 0 21.78 0 33 0 C33.495 4.455 33.495 4.455 34 9 C33.34 8.67 32.68 8.34 32 8 C31.505 4.535 31.505 4.535 31 1 C21.1 1 11.2 1 1 1 C0.67 5.62 0.34 10.24 0 15 C-0.33 16.65 -0.66 18.3 -1 20 C-1.66 20 -2.32 20 -3 20 C-3.33 21.65 -3.66 23.3 -4 25 C-5.11991797 21.63684208 -4.85748516 19.42994063 -4.00390625 16.015625 C-3.79838135 15.17290039 -3.59285645 14.33017578 -3.38110352 13.46191406 C-3.11096436 12.40198242 -2.8408252 11.34205078 -2.5625 10.25 C-1.716875 6.8675 -0.87125 3.485 0 0 Z " fill="#DA5D2B" transform="translate(112,216)"/>
<path d="M0 0 C0.66 0 1.32 0 2 0 C1.98839844 0.60585937 1.97679687 1.21171875 1.96484375 1.8359375 C1.89890039 7.95924948 2.27568567 13.92093331 3 20 C1.02 20 -0.96 20 -3 20 C-3.33452052 12.56621057 -3.13902852 6.80122845 0 0 Z " fill="#F7FDF7" transform="translate(369,246)"/>
<path d="M0 0 C-2.97280139 1.48640069 -5.18028561 0.2588204 -8.27685547 -0.47949219 C-13.32607719 -1.44461149 -18.43531067 -1.47665456 -23.5625 -1.625 C-24.66658203 -1.66367188 -25.77066406 -1.70234375 -26.90820312 -1.7421875 C-29.60531125 -1.83559384 -32.3024277 -1.92136476 -35 -2 C-27.94365836 -9.05634164 -7.15020133 -5.42429066 0 0 Z " fill="#E16A36" transform="translate(261,219)"/>
<path d="M0 0 C0.33 0 0.66 0 1 0 C0.98839844 0.96421875 0.97679687 1.9284375 0.96484375 2.921875 C0.95582031 4.18515625 0.94679688 5.4484375 0.9375 6.75 C0.92589844 8.00296875 0.91429687 9.2559375 0.90234375 10.546875 C0.84310847 13.84395896 0.84310847 13.84395896 1.69140625 16.265625 C1.79324219 16.83796875 1.89507812 17.4103125 2 18 C0.66015625 19.4921875 0.66015625 19.4921875 -1 21 C-1.91536046 22.99987327 -1.91536046 22.99987327 -2.5625 25.125 C-3.25390625 27.2578125 -3.25390625 27.2578125 -4 29 C-4.66 29.33 -5.32 29.66 -6 30 C-5.38627074 23.12199963 -4.10103248 16.6335677 -2.4375 9.9375 C-2.20353516 8.97650391 -1.96957031 8.01550781 -1.72851562 7.02539062 C-1.15732057 4.68232518 -0.58107577 2.34063082 0 0 Z " fill="#E95823" transform="translate(348,240)"/>
<path d="M0 0 C1.60407328 -0.02708567 3.2082785 -0.04643483 4.8125 -0.0625 C5.70582031 -0.07410156 6.59914062 -0.08570313 7.51953125 -0.09765625 C10 0 10 0 13 1 C12.67 1.99 12.34 2.98 12 4 C12 3.34 12 2.68 12 2 C10.56344146 1.91868537 9.1255517 1.86066441 7.6875 1.8125 C6.88699219 1.77769531 6.08648437 1.74289063 5.26171875 1.70703125 C2.412432 2.07610984 1.74760476 2.75712092 0 5 C-0.47065624 7.23358543 -0.47065624 7.23358543 -0.43237305 9.74682617 C-0.45216721 10.70759567 -0.47196136 11.66836517 -0.49235535 12.6582489 C-0.49874527 13.69270645 -0.50513519 14.727164 -0.51171875 15.79296875 C-0.52966995 16.85413406 -0.54762115 17.91529938 -0.56611633 19.00862122 C-0.62034524 22.40154025 -0.6541559 25.79431762 -0.6875 29.1875 C-0.7206619 31.4863479 -0.7551505 33.78517706 -0.79101562 36.08398438 C-0.87607882 41.72252921 -0.94437534 47.3610921 -1 53 C-1.33 53 -1.66 53 -2 53 C-2.05068981 46.09492119 -2.08572927 39.18989034 -2.10986328 32.28466797 C-2.11992384 29.93536587 -2.13357373 27.58607631 -2.15087891 25.23681641 C-2.17512452 21.86097115 -2.18648259 18.4852914 -2.1953125 15.109375 C-2.20563507 14.05820496 -2.21595764 13.00703491 -2.22659302 11.92401123 C-2.22674408 10.94329651 -2.22689514 9.96258179 -2.22705078 8.95214844 C-2.231492 8.09055115 -2.23593323 7.22895386 -2.24050903 6.34124756 C-1.98059785 3.81112876 -1.27284196 2.18270153 0 0 Z " fill="#D95823" transform="translate(234,228)"/>
<path d="M0 0 C10.56 0 21.12 0 32 0 C35 14 35 14 34 18 C33.54105193 16.47935206 33.08287786 14.95847052 32.625 13.4375 C32.36976563 12.59058594 32.11453125 11.74367187 31.8515625 10.87109375 C30.87767376 7.58756978 29.94089435 4.29313024 29 1 C19.76 1 10.52 1 1 1 C0.67 2.65 0.34 4.3 0 6 C-1.125 2.25 -1.125 2.25 0 0 Z " fill="#DB5D2B" transform="translate(354,216)"/>
<path d="M0 0 C0.33 0 0.66 0 1 0 C1.10957031 0.61488281 1.21914062 1.22976563 1.33203125 1.86328125 C1.49058594 2.67152344 1.64914063 3.47976563 1.8125 4.3125 C1.96332031 5.11300781 2.11414063 5.91351563 2.26953125 6.73828125 C3.08794777 9.27230888 4.08859809 10.20900136 6 12 C6.33 12.99 6.66 13.98 7 15 C8.31647119 15.69937532 9.65022151 16.36729133 11 17 C11.33 17.66 11.66 18.32 12 19 C14.11327425 19.90725434 14.11327425 19.90725434 16.5625 20.625 C17.80193359 21.01558594 17.80193359 21.01558594 19.06640625 21.4140625 C19.70449219 21.60742188 20.34257812 21.80078125 21 22 C21 22.33 21 22.66 21 23 C14.00869439 22.39730124 9.29111139 21.39525281 4.25 16.125 C0.20967426 10.51343648 -0.22887722 6.75187794 0 0 Z " fill="#E05B25" transform="translate(211,275)"/>
<path d="M0 0 C0.33 0 0.66 0 1 0 C0.23945318 9.43078051 -1.38671563 18.68556572 -3 28 C0.63 28 4.26 28 8 28 C8 28.66 8 29.32 8 30 C4.04 30 0.08 30 -4 30 C-3.91267818 26.3114059 -3.80573603 22.62512575 -3.6875 18.9375 C-3.66494141 17.89916016 -3.64238281 16.86082031 -3.61914062 15.79101562 C-3.40998898 9.8016731 -2.8137342 5.31818394 0 0 Z " fill="#E2703F" transform="translate(367,240)"/>
<path d="M0 0 C1.62483572 2.97527008 2.53848969 5.76119512 3.2890625 9.0625 C3.50820312 10.02414063 3.72734375 10.98578125 3.953125 11.9765625 C4.17484375 12.97429687 4.3965625 13.97203125 4.625 15 C4.85445312 15.99773437 5.08390625 16.99546875 5.3203125 18.0234375 C6.2517222 22.15934007 7 25.73735 7 30 C6.34 30 5.68 30 5 30 C5 28.68 5 27.36 5 26 C4.34 26 3.68 26 3 26 C2.33333333 22 1.66666667 18 1 14 C0.814375 12.96875 0.62875 11.9375 0.4375 10.875 C-0.12378912 7.18652864 -0.06424451 3.72618182 0 0 Z " fill="#E36A35" transform="translate(146,226)"/>
<path d="M0 0 C0.66 0 1.32 0 2 0 C3.33333333 2 4.66666667 4 6 6 C9.53782934 9.53782934 14.31921112 10.58976233 19 12 C15.59598052 13.13732426 13.22543336 12.83989957 9.75 12.0625 C8.85796875 11.86785156 7.9659375 11.67320312 7.046875 11.47265625 C6.37140625 11.31667969 5.6959375 11.16070312 5 11 C5 10.34 5 9.68 5 9 C4.34 9 3.68 9 3 9 C2.67 8.34 2.34 7.68 2 7 C1.67 8.98 1.34 10.96 1 13 C0.34 12.67 -0.32 12.34 -1 12 C-0.67 8.04 -0.34 4.08 0 0 Z " fill="#FCDCC5" transform="translate(211,286)"/>
<path d="M0 0 C0.33 0 0.66 0 1 0 C1.33 2.31 1.66 4.62 2 7 C2.66 7 3.32 7 4 7 C5.0212256 10.06367681 5.23774934 12.5376832 5.4375 15.75 C5.70001016 19.26424894 5.99214888 22.51319295 7.0625 25.875 C8.02463826 29.08212753 8.16229742 31.67290282 8 35 C4.81605389 30.22408083 4.13396581 24.7383947 2.875 19.1875 C2.59785156 18.01123047 2.32070313 16.83496094 2.03515625 15.62304688 C1.77347656 14.48287109 1.51179688 13.34269531 1.2421875 12.16796875 C1.0035498 11.12922607 0.76491211 10.0904834 0.51904297 9.02026367 C-0.0081816 5.95239199 -0.0922411 3.10632052 0 0 Z " fill="#FDE1C6" transform="translate(388,224)"/>
<path d="M0 0 C0.66 0 1.32 0 2 0 C4.12508244 3.18762365 4.5020163 5.26512223 5 9 C5.33 9 5.66 9 6 9 C6 13.95 6 18.9 6 24 C4.24632763 21.36949145 3.61808596 20.06925023 2.9296875 17.12890625 C2.75566406 16.38962891 2.58164063 15.65035156 2.40234375 14.88867188 C2.22832031 14.12103516 2.05429688 13.35339844 1.875 12.5625 C1.69324219 11.79873047 1.51148438 11.03496094 1.32421875 10.24804688 C0.49229538 6.65451323 0 3.73619355 0 0 Z " fill="#FCEFDB" transform="translate(145,219)"/>
<path d="M0 0 C2.35358251 2.35358251 2.27871904 2.92968394 2.4140625 6.1328125 C2.45273437 6.93847656 2.49140625 7.74414062 2.53125 8.57421875 C2.5621875 9.41597656 2.593125 10.25773438 2.625 11.125 C2.66367187 11.97449219 2.70234375 12.82398438 2.7421875 13.69921875 C2.83656494 15.79911684 2.91937586 17.89952891 3 20 C2.67 20 2.34 20 2 20 C2 18.02 2 16.04 2 14 C1.01 14.495 1.01 14.495 0 15 C-0.73075648 17.3140622 -1.40138258 19.64828869 -2 22 C-3.41835264 18.09453605 -2.71906171 14.43777269 -2.125 10.4375 C-2.03347656 9.76525391 -1.94195312 9.09300781 -1.84765625 8.40039062 C-1.43546571 5.47732107 -0.93569266 2.80707799 0 0 Z " fill="#FCCBA9" transform="translate(369,232)"/>
<path d="M0 0 C0.86044922 0.34611328 0.86044922 0.34611328 1.73828125 0.69921875 C0.44862949 2.07484729 -0.88861168 3.40688268 -2.26171875 4.69921875 C-2.92171875 4.69921875 -3.58171875 4.69921875 -4.26171875 4.69921875 C-4.50921875 5.31796875 -4.75671875 5.93671875 -5.01171875 6.57421875 C-6.26171875 8.69921875 -6.26171875 8.69921875 -8.32421875 9.69921875 C-10.47452154 10.52880095 -10.47452154 10.52880095 -11.01171875 12.82421875 C-11.09421875 13.44296875 -11.17671875 14.06171875 -11.26171875 14.69921875 C-11.92171875 14.69921875 -12.58171875 14.69921875 -13.26171875 14.69921875 C-13.26171875 13.37921875 -13.26171875 12.05921875 -13.26171875 10.69921875 C-12.60171875 10.69921875 -11.94171875 10.69921875 -11.26171875 10.69921875 C-11.17535156 10.11785156 -11.08898437 9.53648437 -11 8.9375 C-10.05629364 6.07642199 -8.69819562 4.8686557 -6.44921875 2.88671875 C-5.41861328 1.94892578 -5.41861328 1.94892578 -4.3671875 0.9921875 C-2.26171875 -0.30078125 -2.26171875 -0.30078125 0 0 Z " fill="#E75C2A" transform="translate(224.26171875,217.30078125)"/>
<path d="M0 0 C2 2 2 2 2.1953125 5.2578125 C2.16050781 7.17207031 2.16050781 7.17207031 2.125 9.125 C2.10695312 10.40632813 2.08890625 11.68765625 2.0703125 13.0078125 C2.04710937 13.99523437 2.02390625 14.98265625 2 16 C0.35 16 -1.3 16 -3 16 C-2.69262339 13.52009745 -2.37935917 11.04119265 -2.0625 8.5625 C-1.97548828 7.85544922 -1.88847656 7.14839844 -1.79882812 6.41992188 C-1.11328125 1.11328125 -1.11328125 1.11328125 0 0 Z " fill="#F8FCFC" transform="translate(128,250)"/>
<path d="M0 0 C0.33 0 0.66 0 1 0 C1.06058594 0.97582031 1.12117187 1.95164062 1.18359375 2.95703125 C1.26738281 4.22933594 1.35117188 5.50164062 1.4375 6.8125 C1.51871094 8.07707031 1.59992188 9.34164063 1.68359375 10.64453125 C1.87184547 13.99181893 1.87184547 13.99181893 3 17 C3.66 17 4.32 17 5 17 C5 17.66 5 18.32 5 19 C7.64 18.34 10.28 17.68 13 17 C12.67 17.99 12.34 18.98 12 20 C10.56589632 20.24954005 9.12739928 20.47392642 7.6875 20.6875 C6.88699219 20.81511719 6.08648437 20.94273437 5.26171875 21.07421875 C3 21 3 21 1.37695312 19.75976562 C-0.32868914 17.57993061 -0.35123526 16.50805709 -0.29296875 13.76953125 C-0.28330078 12.96708984 -0.27363281 12.16464844 -0.26367188 11.33789062 C-0.23853516 10.50451172 -0.21339844 9.67113281 -0.1875 8.8125 C-0.17396484 7.96751953 -0.16042969 7.12253906 -0.14648438 6.25195312 C-0.11115799 4.16769616 -0.05735139 2.08376723 0 0 Z " fill="#FDEADC" transform="translate(234,264)"/>
<path d="M0 0 C7.92 0 15.84 0 24 0 C24 0.66 24 1.32 24 2 C16.74 2 9.48 2 2 2 C2 2.66 2 3.32 2 4 C1.34 4 0.68 4 0 4 C0 2.68 0 1.36 0 0 Z " fill="#F8DAB8" transform="translate(94,298)"/>
<path d="M0 0 C0.66 0 1.32 0 2 0 C2.96070434 2.88211302 3.10581883 4.69850044 3.0625 7.6875 C3.05347656 8.49574219 3.04445313 9.30398438 3.03515625 10.13671875 C3.02355469 10.75160156 3.01195312 11.36648438 3 12 C1.34385343 12.38218767 -0.32457024 12.71395102 -2 13 C-2.33 12.67 -2.66 12.34 -3 12 C-4.48638992 11.84344973 -5.97949127 11.74933057 -7.47265625 11.68359375 C-8.82133789 11.62075195 -8.82133789 11.62075195 -10.19726562 11.55664062 C-11.14279297 11.51732422 -12.08832031 11.47800781 -13.0625 11.4375 C-14.01189453 11.39431641 -14.96128906 11.35113281 -15.93945312 11.30664062 C-18.29281353 11.20020724 -20.64628354 11.09818992 -23 11 C-23 10.67 -23 10.34 -23 10 C-14.75 10 -6.5 10 2 10 C1.34 6.7 0.68 3.4 0 0 Z " fill="#F7CFAB" transform="translate(402,288)"/>
<path d="M0 0 C2.475 0.99 2.475 0.99 5 2 C5.07308137 4.55784811 5.04344672 6.810879 4.46875 9.3125 C3.94678097 12.30512244 4.11062438 14.7979804 4.4375 17.8125 C4.53933594 18.78832031 4.64117187 19.76414062 4.74609375 20.76953125 C4.82988281 21.50558594 4.91367188 22.24164063 5 23 C2.98921934 19.49424762 2.20719002 16.00069215 1.375 12.0625 C0.98441406 10.25458984 0.98441406 10.25458984 0.5859375 8.41015625 C0.08692861 5.50592451 -0.12243178 2.93279765 0 0 Z " fill="#FDE5D0" transform="translate(155,261)"/>
<path d="M0 0 C1.27593889 2.55187777 0.85494886 3.58878762 0.29296875 6.359375 C0.11830078 7.22820312 -0.05636719 8.09703125 -0.23632812 8.9921875 C-0.42646484 9.90226563 -0.61660156 10.81234375 -0.8125 11.75 C-0.99103516 12.64460937 -1.16957031 13.53921875 -1.35351562 14.4609375 C-2.29996104 19.09407822 -3.37101708 23.54793809 -5 28 C-5.33 28 -5.66 28 -6 28 C-5.91218733 25.47765681 -5.80521993 22.9584835 -5.6875 20.4375 C-5.66494141 19.73302734 -5.64238281 19.02855469 -5.61914062 18.30273438 C-5.36134181 13.21706686 -4.2230891 9.5822857 -2 5 C-1.32723284 3.3357865 -0.65793165 1.67013418 0 0 Z " fill="#FCDABE" transform="translate(353,216)"/>
<path d="M0 0 C1.98 0 3.96 0 6 0 C5.360625 0.763125 4.72125 1.52625 4.0625 2.3125 C1.85767219 4.88246713 1.85767219 4.88246713 1 8 C0.34 8 -0.32 8 -1 8 C-1.12375 8.969375 -1.2475 9.93875 -1.375 10.9375 C-1.58125 11.948125 -1.7875 12.95875 -2 14 C-2.99 14.495 -2.99 14.495 -4 15 C-4 12.69 -4 10.38 -4 8 C-3.34 8 -2.68 8 -2 8 C-2.33 7.01 -2.66 6.02 -3 5 C-2.34 5 -1.68 5 -1 5 C-0.67 3.35 -0.34 1.7 0 0 Z " fill="#FAF3E6" transform="translate(212,220)"/>
<path d="M0 0 C0.74886475 0.00523682 1.49772949 0.01047363 2.26928711 0.01586914 C3.07817383 0.0190918 3.88706055 0.02231445 4.72045898 0.02563477 C5.5705957 0.03401367 6.42073242 0.04239258 7.29663086 0.05102539 C8.15063477 0.05553711 9.00463867 0.06004883 9.88452148 0.06469727 C12.00108749 0.07652166 14.11761771 0.0944577 16.23413086 0.11352539 C16.23413086 0.44352539 16.23413086 0.77352539 16.23413086 1.11352539 C10.95413086 1.11352539 5.67413086 1.11352539 0.23413086 1.11352539 C0.08975586 2.49540039 -0.05461914 3.87727539 -0.20336914 5.30102539 C-0.56946057 8.61676777 -1.03025807 11.85581921 -1.76586914 15.11352539 C-2.09586914 15.11352539 -2.42586914 15.11352539 -2.76586914 15.11352539 C-2.79272326 12.80108747 -2.81219755 10.48856269 -2.82836914 8.17602539 C-2.8399707 6.88825195 -2.85157227 5.60047852 -2.86352539 4.27368164 C-2.7368959 0.17595142 -2.7368959 0.17595142 0 0 Z " fill="#EB7B4C" transform="translate(360.765869140625,282.886474609375)"/>
<path d="M0 0 C2.95857409 -0.05379226 5.91617721 -0.09357093 8.875 -0.125 C9.71675781 -0.14175781 10.55851563 -0.15851563 11.42578125 -0.17578125 C12.23144531 -0.18222656 13.03710938 -0.18867188 13.8671875 -0.1953125 C14.98262939 -0.21102295 14.98262939 -0.21102295 16.12060547 -0.22705078 C18 0 18 0 20 2 C16.63576723 4.96052484 13.30840713 5.92289822 9 7 C9.33 5.68 9.66 4.36 10 3 C11.98 3 13.96 3 16 3 C16 2.34 16 1.68 16 1 C10.72 1 5.44 1 0 1 C0 0.67 0 0.34 0 0 Z " fill="#FEFAEC" transform="translate(210,212)"/>
<path d="M0 0 C1.48831242 0.00667405 2.97660807 0.01863442 4.46484375 0.03515625 C5.22345703 0.03966797 5.98207031 0.04417969 6.76367188 0.04882812 C8.64326246 0.06064945 10.52281274 0.07858547 12.40234375 0.09765625 C12.40234375 1.74765625 12.40234375 3.39765625 12.40234375 5.09765625 C11.74234375 4.43765625 11.08234375 3.77765625 10.40234375 3.09765625 C7.28038039 2.63278907 7.28038039 2.63278907 3.77734375 2.47265625 C2.58882813 2.39789063 1.4003125 2.323125 0.17578125 2.24609375 C-0.73945312 2.19710938 -1.6546875 2.148125 -2.59765625 2.09765625 C-2.92765625 3.08765625 -3.25765625 4.07765625 -3.59765625 5.09765625 C-4.16015625 3.16015625 -4.16015625 3.16015625 -4.59765625 1.09765625 C-3.59765625 0.09765625 -3.59765625 0.09765625 0 0 Z " fill="#FDC5A0" transform="translate(123.59765625,282.90234375)"/>
<path d="M0 0 C1.26338576 2.52677153 0.85376414 3.41713614 0.22265625 6.1328125 C0.03896484 6.93847656 -0.14472656 7.74414062 -0.33398438 8.57421875 C-0.63272461 9.83685547 -0.63272461 9.83685547 -0.9375 11.125 C-1.13279297 11.97449219 -1.32808594 12.82398438 -1.52929688 13.69921875 C-2.01339259 15.80090258 -2.50590903 17.90064351 -3 20 C-3.33 20 -3.66 20 -4 20 C-4.05451714 17.95863605 -4.09302485 15.91684144 -4.125 13.875 C-4.14820312 12.73804688 -4.17140625 11.60109375 -4.1953125 10.4296875 C-3.99488209 6.91012956 -3.37414189 4.23836237 -2 1 C-1.34 0.67 -0.68 0.34 0 0 Z " fill="#FCE7CF" transform="translate(102,257)"/>
<path d="M0 0 C0.66 0 1.32 0 2 0 C2.33 4.29 2.66 8.58 3 13 C1.68 13 0.36 13 -1 13 C-1.07654536 8.48382401 -1.10228696 4.40914783 0 0 Z " fill="#FDDBB4" transform="translate(127,235)"/>
<path d="M0 0 C0.99 0 1.98 0 3 0 C4.36238646 4.08715937 4.43123024 8.10082172 4.71875 12.3828125 C4.71496985 14.92413861 4.71496985 14.92413861 6 16 C6.04080783 17.99958364 6.04254356 20.00045254 6 22 C5.67 22 5.34 22 5 22 C3.37150031 17.64409432 2.65881554 13.76065388 2.375 9.125 C2.30023438 7.97257813 2.22546875 6.82015625 2.1484375 5.6328125 C2.07496094 4.32957031 2.07496094 4.32957031 2 3 C1.34 3 0.68 3 0 3 C-0.33 3.66 -0.66 4.32 -1 5 C-0.67 3.35 -0.34 1.7 0 0 Z " fill="#E95216" transform="translate(127,229)"/>
<path d="M0 0 C0.33 0 0.66 0 1 0 C1.18451025 10.55808656 1.18451025 10.55808656 0 15 C-0.66 15 -1.32 15 -2 15 C-2.33 16.65 -2.66 18.3 -3 20 C-4.37344385 15.60155678 -3.24307502 12.07495445 -2.0625 7.75 C-1.86720703 7.00492188 -1.67191406 6.25984375 -1.47070312 5.4921875 C-0.98895802 3.65920614 -0.49560775 1.82928182 0 0 Z " fill="#E0652F" transform="translate(111,221)"/>
<path d="M0 0 C0.33 0.66 0.66 1.32 1 2 C1.66 2 2.32 2 3 2 C3.33 3.98 3.66 5.96 4 8 C7.96 8.33 11.92 8.66 16 9 C16 9.33 16 9.66 16 10 C11.05 10 6.1 10 1 10 C0.67 6.7 0.34 3.4 0 0 Z " fill="#DC6D3B" transform="translate(136,288)"/>
<path d="M0 0 C2.15641331 3.23461997 2.81100973 5.67072961 3.6875 9.4375 C3.95949219 10.57058594 4.23148437 11.70367187 4.51171875 12.87109375 C4.96085657 15.74916889 4.98469931 17.31025087 4 20 C4 19.34 4 18.68 4 18 C3.34 18 2.68 18 2 18 C1.6603981 16.12612523 1.32861309 14.25083303 1 12.375 C0.7215625 10.80878906 0.7215625 10.80878906 0.4375 9.2109375 C0.01284203 6.09425135 -0.07545206 3.14069188 0 0 Z " fill="#E26539" transform="translate(389,234)"/>
<path d="M0 0 C0.33 0 0.66 0 1 0 C1.10957031 0.61488281 1.21914062 1.22976563 1.33203125 1.86328125 C1.49058594 2.67152344 1.64914063 3.47976563 1.8125 4.3125 C1.96332031 5.11300781 2.11414063 5.91351563 2.26953125 6.73828125 C3.08462878 9.26203243 4.07385771 10.23778471 6 12 C6.6875 14.1875 6.6875 14.1875 7 16 C5.1875 15.9375 5.1875 15.9375 3 15 C0.03535091 9.81186409 -0.31111883 5.91125786 0 0 Z " fill="#E5551B" transform="translate(211,275)"/>
<path d="M0 0 C0.474375 0.515625 0.94875 1.03125 1.4375 1.5625 C5.24110099 3.69622738 8.84749583 3.0661835 13 2 C13.66 1.34 14.32 0.68 15 0 C14.67 1.65 14.34 3.3 14 5 C9.71 5 5.42 5 1 5 C0.67 3.35 0.34 1.7 0 0 Z " fill="#E05928" transform="translate(233,281)"/>
<path d="M0 0 C0.66 0 1.32 0 2 0 C2.48452463 6.94485303 0.69287491 13.2990368 -1 20 C-1.33 20 -1.66 20 -2 20 C-1.85953745 17.04132082 -1.71287776 14.08317736 -1.5625 11.125 C-1.52318359 10.28324219 -1.48386719 9.44148437 -1.44335938 8.57421875 C-1.40146484 7.76855469 -1.35957031 6.96289062 -1.31640625 6.1328125 C-1.27974854 5.38918457 -1.24309082 4.64555664 -1.20532227 3.87939453 C-1 2 -1 2 0 0 Z " fill="#FCDDC7" transform="translate(110,214)"/>
<path d="M0 0 C0.33 0 0.66 0 1 0 C0.50130596 5.36891879 -0.02227532 10.69235173 -1 16 C-1.66 16 -2.32 16 -3 16 C-3.37952295 9.80112515 -2.8352113 5.5522888 0 0 Z " fill="#E2622E" transform="translate(367,240)"/>
<path d="M0 0 C3.46941546 0.45822468 6.67395049 0.89131683 10 2 C10 2.66 10 3.32 10 4 C7.03 4 4.06 4 1 4 C0.67 2.68 0.34 1.36 0 0 Z " fill="#F84410" transform="translate(252,218)"/>
<path d="M0 0 C0.66 0 1.32 0 2 0 C2 0.99 2 1.98 2 3 C2.99 3 3.98 3 5 3 C5 3.66 5 4.32 5 5 C7.97 5 10.94 5 14 5 C14 5.33 14 5.66 14 6 C9.71 6 5.42 6 1 6 C0.67 4.02 0.34 2.04 0 0 Z " fill="#EA5018" transform="translate(298,256)"/>
<path d="M0 0 C2.66676828 2.20480842 3.90282884 3.30425452 4.390625 6.796875 C4.34421875 7.77140625 4.2978125 8.7459375 4.25 9.75 C4.21390625 10.73484375 4.1778125 11.7196875 4.140625 12.734375 C4.09421875 13.48203125 4.0478125 14.2296875 4 15 C1.81257986 11.7188698 1.45557194 9.66915644 0.875 5.8125 C0.70742187 4.72582031 0.53984375 3.63914063 0.3671875 2.51953125 C0.24601563 1.68808594 0.12484375 0.85664063 0 0 Z " fill="#FFE8CE" transform="translate(151,246)"/>
<path d="M0 0 C0.66 0 1.32 0 2 0 C0.84826645 2.46800047 -0.04783565 4.04783565 -2 6 C-4.8203125 6.1953125 -4.8203125 6.1953125 -8.125 6.125 C-9.22070312 6.10695313 -10.31640625 6.08890625 -11.4453125 6.0703125 C-12.28835938 6.04710937 -13.13140625 6.02390625 -14 6 C-14 5.67 -14 5.34 -14 5 C-13.15695312 4.97421875 -12.31390625 4.9484375 -11.4453125 4.921875 C-10.34960938 4.86515625 -9.25390625 4.8084375 -8.125 4.75 C-7.03445313 4.70359375 -5.94390625 4.6571875 -4.8203125 4.609375 C-1.8667935 4.31153872 -1.8667935 4.31153872 -0.6171875 1.953125 C-0.41351563 1.30859375 -0.20984375 0.6640625 0 0 Z " fill="#F54A0B" transform="translate(414,302)"/>
<path d="M0 0 C0.66 0 1.32 0 2 0 C0.84941444 5.39795989 -0.42421759 10.70987333 -2 16 C-2.33 16 -2.66 16 -3 16 C-3.33266291 9.79029227 -2.45029331 5.71735105 0 0 Z " fill="#FFF3E9" transform="translate(369,246)"/>
<path d="M0 0 C1.65 0 3.3 0 5 0 C5 0.99 5 1.98 5 3 C4.01 3 3.02 3 2 3 C2.66 4.32 3.32 5.64 4 7 C2.68 7 1.36 7 0 7 C0 4.69 0 2.38 0 0 Z " fill="#ED4D0D" transform="translate(313,290)"/>
<path d="M0 0 C1.32 0 2.64 0 4 0 C4 2.31 4 4.62 4 7 C2.35 7 0.7 7 -1 7 C-0.34 6.67 0.32 6.34 1 6 C0.67 4.02 0.34 2.04 0 0 Z " fill="#EC4D0D" transform="translate(354,290)"/>
<path d="M0 0 C1.85646001 2.78469002 2.45157815 4.2681416 3.125 7.4375 C3.29257813 8.19933594 3.46015625 8.96117187 3.6328125 9.74609375 C4 12 4 12 4 16 C3.34 16 2.68 16 2 16 C1.66259915 14.08404518 1.33023588 12.16720278 1 10.25 C0.814375 9.18265625 0.62875 8.1153125 0.4375 7.015625 C0 4 0 4 0 0 Z " fill="#DF6734" transform="translate(156,272)"/>
<path d="M0 0 C0.82020418 2.88711871 1.16181621 5.50013311 1.1875 8.5 C1.20167969 9.2528125 1.21585937 10.005625 1.23046875 10.78125 C0.97417278 13.24864173 0.22845153 14.86356256 -1 17 C-1.33 17 -1.66 17 -2 17 C-1.85899143 14.72886197 -1.71203245 12.45809275 -1.5625 10.1875 C-1.48128906 8.92292969 -1.40007812 7.65835938 -1.31640625 6.35546875 C-1 3 -1 3 0 0 Z " fill="#ED4C08" transform="translate(108,238)"/>
<path d="M0 0 C0.33 0 0.66 0 1 0 C1.02694851 1.95825873 1.04637218 3.91662226 1.0625 5.875 C1.07410156 6.96554688 1.08570313 8.05609375 1.09765625 9.1796875 C1 12 1 12 0 14 C-0.66 14 -1.32 14 -2 14 C-1.03644647 4.58997722 -1.03644647 4.58997722 0 0 Z " fill="#E0622D" transform="translate(352,222)"/>
<path d="M0 0 C0.33 0 0.66 0 1 0 C1.08082094 1.95766281 1.13910778 3.91626728 1.1875 5.875 C1.23970703 7.51082031 1.23970703 7.51082031 1.29296875 9.1796875 C1.19628906 10.11039062 1.09960938 11.04109375 1 12 C0.01 12.66 -0.98 13.32 -2 14 C-1.03644647 4.58997722 -1.03644647 4.58997722 0 0 Z " fill="#E56B36" transform="translate(344,256)"/>
<path d="M0 0 C1.60407328 -0.02708567 3.2082785 -0.04643483 4.8125 -0.0625 C5.70582031 -0.07410156 6.59914062 -0.08570313 7.51953125 -0.09765625 C10 0 10 0 13 1 C12.67 1.99 12.34 2.98 12 4 C12 3.34 12 2.68 12 2 C5.96908865 1.52469109 5.96908865 1.52469109 0.4375 3.5 C-0.036875 3.995 -0.51125 4.49 -1 5 C-0.67 3.35 -0.34 1.7 0 0 Z " fill="#DF5F31" transform="translate(234,228)"/>
<path d="M0 0 C6.14587738 0.2410148 6.14587738 0.2410148 8.578125 2.40234375 C9.78844931 3.88046971 10.90220903 5.43647953 12 7 C8.38862487 7 7.25267809 6.07469918 4.3125 4.0625 C3.50425781 3.51722656 2.69601562 2.97195312 1.86328125 2.41015625 C1.24839844 1.94480469 0.63351562 1.47945312 0 1 C0 0.67 0 0.34 0 0 Z " fill="#FDDBBF" transform="translate(256,216)"/>
<path d="M0 0 C0.66 0 1.32 0 2 0 C1.34 3.96 0.68 7.92 0 12 C-0.33 12 -0.66 12 -1 12 C-1.02687279 10.18757948 -1.04633715 8.37504767 -1.0625 6.5625 C-1.07410156 5.55316406 -1.08570313 4.54382813 -1.09765625 3.50390625 C-1 1 -1 1 0 0 Z " fill="#FEE3C0" transform="translate(337,279)"/>
<path d="M0 0 C0 0.99 0 1.98 0 3 C-4.455 3.495 -4.455 3.495 -9 4 C-9.33 3.34 -9.66 2.68 -10 2 C-6.7 1.34 -3.4 0.68 0 0 Z " fill="#FABEA0" transform="translate(246,281)"/>
<path d="M0 0 C0.33 0 0.66 0 1 0 C1.33 4.62 1.66 9.24 2 14 C1.34 14 0.68 14 0 14 C-1.39151652 9.20699867 -0.68662689 4.84864218 0 0 Z " fill="#F24D11" transform="translate(145,225)"/>
<path d="M0 0 C0.66 0 1.32 0 2 0 C1.125 4.75 1.125 4.75 0 7 C-0.66 7 -1.32 7 -2 7 C-2.125 4.625 -2.125 4.625 -2 2 C-1.34 1.34 -0.68 0.68 0 0 Z " fill="#E2551D" transform="translate(266,284)"/>
<path d="M0 0 C0.33 0.66 0.66 1.32 1 2 C0.06421005 4.35981813 -0.93347808 6.69631264 -2 9 C-2.66 9 -3.32 9 -4 9 C-4 7.68 -4 6.36 -4 5 C-3.34 5 -2.68 5 -2 5 C-1.7834375 4.0409375 -1.7834375 4.0409375 -1.5625 3.0625 C-1 1 -1 1 0 0 Z " fill="#E16A3A" transform="translate(215,223)"/>
<path d="M0 0 C0.66 0 1.32 0 2 0 C3.20272819 2.40545638 3.10071472 3.94996953 3.0625 6.625 C3.05347656 7.44226563 3.04445312 8.25953125 3.03515625 9.1015625 C3.02355469 9.72804687 3.01195312 10.35453125 3 11 C1.0210244 7.36383344 0.4748935 4.11574371 0 0 Z " fill="#FEDFC5" transform="translate(145,219)"/>
<path d="M0 0 C0.33 0 0.66 0 1 0 C1 3.63 1 7.26 1 11 C0.01 10.01 -0.98 9.02 -2 8 C-1.79846293 5.15124622 -0.85624823 2.74900747 0 0 Z " fill="#FDEFE5" transform="translate(93,288)"/>
<path d="M0 0 C0.99 0.33 1.98 0.66 3 1 C2.38125 1.598125 1.7625 2.19625 1.125 2.8125 C-1.13676954 5.00811144 -1.13676954 5.00811144 -3 8 C-3.1875 5.125 -3.1875 5.125 -3 2 C-2.01 1.34 -1.02 0.68 0 0 Z " fill="#FCDDBD" transform="translate(215,220)"/>
<path d="M0 0 C2.64 0 5.28 0 8 0 C5.3144406 2.6855594 2.62378672 3.06049974 -1 4 C-0.67 2.68 -0.34 1.36 0 0 Z " fill="#FEE8D2" transform="translate(220,215)"/>
<path d="M0 0 C1.98 0 3.96 0 6 0 C5.34 1.32 4.68 2.64 4 4 C2.68 3.67 1.36 3.34 0 3 C0 2.01 0 1.02 0 0 Z " fill="#F3FEF6" transform="translate(258,213)"/>
<path d="M0 0 C1.98 0 3.96 0 6 0 C6 1.32 6 2.64 6 4 C5.01 4 4.02 4 3 4 C3 3.34 3 2.68 3 2 C2.01 2 1.02 2 0 2 C0 1.34 0 0.68 0 0 Z " fill="#F44E00" transform="translate(256,222)"/>
<path d="M0 0 C1.65 0 3.3 0 5 0 C5 1.98 5 3.96 5 6 C3.68 4.68 2.36 3.36 1 2 C0.67 2.66 0.34 3.32 0 4 C0 2.68 0 1.36 0 0 Z " fill="#F04C0B" transform="translate(163,217)"/>
</svg>
